<svg width="1399" height="1872" viewBox="0 0 1399 1872" fill="none" xmlns="http://www.w3.org/2000/svg">
<g filter="url(#filter0_i_301_4)">
<path fill-rule="evenodd" clip-rule="evenodd" d="M449.907 342H281.763C276.217 342 272.13 340.967 269.503 338.9C267.168 336.575 266 332.958 266 328.05V76.95C266 72.0417 267.168 68.5542 269.503 66.4875C272.13 64.1625 276.217 63 281.763 63H421.445C450.053 63 471.217 67.9083 484.937 77.725C498.657 87.2833 505.517 102.137 505.517 122.287V140.887C505.517 151.737 503.327 160.65 498.949 167.625C495.801 172.799 498.341 185.822 503.95 188.104C510.948 190.951 516.724 194.845 521.28 199.787C530.33 209.604 534.854 223.942 534.854 242.8V278.45C534.854 300.15 527.848 316.167 513.836 326.5C500.116 336.833 478.807 342 449.907 342ZM373.925 128.875C362.368 128.875 353 138.243 353 149.8C353 161.357 362.368 170.725 373.925 170.725H407C412.546 170.725 416.633 169.433 419.26 166.85C422.18 164.267 423.639 160.392 423.639 155.225V144.375C423.639 139.208 422.18 135.333 419.26 132.75C416.633 130.167 412.546 128.875 407 128.875H373.925ZM375.862 230.4C363.236 230.4 353 240.636 353 253.262C353 265.889 363.236 276.125 375.862 276.125H426.704C432.251 276.125 436.338 274.833 438.965 272.25C441.884 269.667 443.344 265.792 443.344 260.625V245.513C443.344 240.346 441.884 236.6 438.965 234.275C436.338 231.692 432.251 230.4 426.704 230.4H375.862ZM592.045 342C586.498 342 582.412 340.967 579.784 338.9C577.449 336.575 576.281 332.958 576.281 328.05V282.713C576.281 277.804 577.449 274.317 579.784 272.25C582.412 269.925 586.498 268.762 592.045 268.762H623C637.359 268.762 649 257.122 649 242.762V161.85C649 147.491 637.359 135.85 623 135.85H592.045C586.498 135.85 582.412 134.817 579.784 132.75C577.449 130.425 576.281 126.808 576.281 121.9V76.95C576.281 72.0417 577.449 68.5542 579.784 66.4875C582.412 64.1625 586.498 63 592.045 63H778.579C784.125 63 788.066 64.1625 790.402 66.4875C793.029 68.5542 794.342 72.0417 794.342 76.95V121.9C794.342 126.808 793.029 130.425 790.402 132.75C788.066 134.817 784.125 135.85 778.579 135.85H751C736.641 135.85 725 147.491 725 161.85V242.763C725 257.122 736.641 268.762 751 268.762H778.579C784.125 268.762 788.066 269.925 790.402 272.25C793.029 274.317 794.342 277.804 794.342 282.713V328.05C794.342 332.958 793.029 336.575 790.402 338.9C788.066 340.967 784.125 342 778.579 342H592.045ZM951.306 342H1089.24C1094.78 342 1098.72 340.967 1101.06 338.9C1103.69 336.575 1105 332.958 1105 328.05V208.312C1105 203.404 1103.69 199.917 1101.06 197.85C1098.72 195.525 1094.78 194.363 1089.24 194.363H1032.76C1027.21 194.363 1023.13 195.525 1020.5 197.85C1018.16 199.917 1017 203.404 1017 208.312V242.762C1017 257.122 1005.36 268.762 990.997 268.762H954.432C947.718 268.762 942.609 267.212 939.106 264.113C935.895 261.012 934.29 256.233 934.29 249.775V157.162C934.29 150.704 936.479 145.925 940.858 142.825C945.236 139.467 951.951 137.787 961 137.787H1060.77C1066.32 137.787 1070.26 136.754 1072.6 134.687C1075.22 132.362 1076.54 128.746 1076.54 123.837V76.95C1076.54 72.0417 1075.22 68.5542 1072.6 66.4875C1070.26 64.1625 1066.32 63 1060.77 63H951.306C914.817 63 887.669 74.5833 869.862 87.5C852.347 100.417 843.589 115.183 843.589 142.05V262.95C843.589 289.817 852.347 309.708 869.862 322.625C887.669 335.542 914.817 342 951.306 342ZM19.4062 932.861L106.281 881.5C119.175 875.115 130.963 869.572 141.653 864.546C174.489 849.107 196.961 838.541 209.281 823.383C225.884 803.291 235.5 763.909 235.5 722.117V512.583C235.5 470.791 227.199 439.848 210.596 419.756C194.265 399.663 176.088 386 142.066 386H14.6979C9.52649 386 5.71598 387.808 3.26637 391.425C1.08893 394.64 0.000213623 400.065 0.000213623 407.7L0 913.944C0 921.58 1.08872 927.206 3.26615 930.822C4.7658 932.79 6.77549 934.156 9.29523 934.919C12.7223 935.957 16.3238 934.683 19.4062 932.861ZM82.4586 521.131C82.4586 510.085 91.4129 501.131 102.459 501.131H131.043C137.575 501.131 142.338 503.542 145.332 508.364C148.598 512.784 150.231 520.018 150.231 530.064V686.786C150.231 696.832 148.766 707.925 145.5 712.747L145.378 712.943L145.273 713.114L145.142 713.325L144.958 713.624C141.715 718.885 135.023 729.738 127 733.747L112.614 742.226C99.2814 750.085 82.4586 740.473 82.4586 724.997V521.131ZM370.698 506.664C370.698 495.618 379.652 486.664 390.698 486.664H408.751C415.827 486.664 420.59 489.477 423.04 495.103C425.49 500.327 426.714 506.957 426.714 514.994V543.325C426.714 551.362 425.49 558.194 423.04 563.819C420.59 569.044 415.827 571.656 408.751 571.656H390.698C379.652 571.656 370.698 562.701 370.698 551.656V506.664ZM298.891 820H356C361.171 820 364.846 818.393 367.023 815.178C369.473 811.561 370.698 805.935 370.698 798.3V700.156C370.698 689.11 379.652 680.156 390.698 680.156H435.288C441.004 680.156 444.95 682.366 447.128 686.786C449.577 690.805 450.802 697.234 450.802 706.075V798.3C450.802 805.935 451.891 811.561 454.069 815.178C456.518 818.393 460.329 820 465.5 820H527.114C532.285 820 535.96 818.393 538.137 815.178C540.587 811.561 541.811 805.935 541.811 798.3V670.511C541.811 645.194 537.184 624.901 527.93 609.631C525.355 605.253 522.545 601.403 519.5 598.082C512.115 590.027 507.017 568.315 509.966 557.792C513.505 545.736 515.274 531.269 515.274 514.392V486.664C515.274 456.927 509.422 432.816 497.718 414.331C486.287 395.444 465.329 386 434.845 386H298.891C293.72 386 289.909 387.808 287.46 391.425C285.282 394.64 284.194 400.065 284.194 407.7V798.3C284.194 805.935 285.282 811.561 287.46 815.178C289.909 818.393 293.72 820 298.891 820ZM771.326 820H581.889C576.717 820 572.907 818.393 570.457 815.178C568.28 811.561 567.191 805.935 567.191 798.3V407.7C567.191 400.065 568.28 394.64 570.457 391.425C572.907 387.808 576.717 386 581.889 386H771.326C776.497 386 780.171 387.808 782.349 391.425C784.798 394.64 786.023 400.065 786.023 407.7V464.964C786.023 472.599 784.798 478.225 782.349 481.842C780.171 485.056 776.497 486.664 771.326 486.664H672C660.954 486.664 652 495.618 652 506.664V526.339C652 537.385 660.954 546.339 672 546.339H738.256C743.427 546.339 747.102 548.147 749.279 551.764C751.729 554.979 752.953 560.404 752.953 568.039V632.536C752.953 640.171 751.729 645.797 749.279 649.414C747.102 652.629 743.427 654.236 738.256 654.236H672C660.954 654.236 652 663.19 652 674.236V696.692C652 707.737 660.954 716.692 672 716.692H771.326C776.497 716.692 780.171 718.5 782.349 722.117C784.798 725.331 786.023 730.756 786.023 738.392V798.3C786.023 805.935 784.798 811.561 782.349 815.178C780.171 818.393 776.497 820 771.326 820ZM903.93 579.837L918.015 512.583C919.104 508.967 920.193 506.355 921.281 504.747C922.642 503.14 924.139 502.336 925.772 502.336L949.049 501.5C950.682 501.5 952.043 502.304 953.132 503.911C954.493 505.518 955.717 508.131 956.806 511.747L971.003 579.535C973.587 591.873 964.25 603.497 951.644 603.633L923.722 603.936C910.939 604.074 901.31 592.349 903.93 579.837ZM891.07 815.178C893.519 811.561 894.744 805.935 894.744 798.3V733.716C894.744 722.747 903.579 713.825 914.548 713.717L959.882 713.273C971.003 713.164 980.078 722.15 980.078 733.272V797.464C980.078 805.099 981.302 810.725 983.752 814.342C986.474 817.556 990.556 819.164 996 819.164L1047.03 820C1052.2 820 1055.87 818.393 1058.05 815.178C1060.5 811.561 1061.73 805.935 1061.73 798.3V639.167C1061.73 627.111 1060.36 613.247 1057.64 597.575C1055.19 581.903 1051.25 563.619 1045.8 542.722L1010.28 405.892C1008.65 399.06 1006.07 394.037 1002.53 390.822C999.261 387.607 995.042 386 989.871 386H880.046C874.603 386 870.112 387.607 866.573 390.822C863.307 394.037 860.858 399.06 859.225 405.892L823.705 542.722C818.262 563.619 814.179 581.903 811.457 597.575C809.008 613.247 807.783 627.111 807.783 639.167V798.3C807.783 805.935 808.871 811.561 811.049 815.178C813.498 818.393 817.309 820 822.48 820H880.046C885.218 820 888.892 818.393 891.07 815.178ZM1161.13 824.822L1106.42 820C1101.25 820 1097.44 818.393 1094.99 815.178C1092.81 811.561 1091.72 805.935 1091.72 798.3V407.7C1091.72 400.065 1092.81 394.64 1094.99 391.425C1097.44 387.808 1101.25 386 1106.42 386H1172.15C1176.5 386 1180.04 387.406 1182.76 390.219C1185.76 393.032 1188.48 397.654 1190.93 404.083L1227.67 502.336C1229.04 505.953 1230.12 508.565 1230.94 510.172C1232.03 511.78 1233.39 512.583 1235.02 512.583H1238.7C1240.33 512.583 1241.56 511.78 1242.37 510.172C1243.46 508.565 1244.69 505.953 1246.05 502.336L1282.38 404.083C1284.83 397.654 1287.42 393.032 1290.14 390.219C1293.13 387.406 1296.81 386 1301.16 386H1367.3C1372.47 386 1376.15 387.808 1378.33 391.425C1380.78 394.64 1382 400.065 1382 407.7L1378.73 909.122C1378.73 916.757 1377.51 922.383 1375.06 926C1373.75 927.937 1371.89 929.291 1369.49 930.061C1366.05 931.166 1362.4 929.841 1359.29 927.982L1314.43 901.122C1308.43 898.122 1303.38 894.837 1300.93 891.622C1298.75 888.006 1297.9 884.38 1297.9 876.744L1300.39 649.719C1300.54 636.205 1281.73 632.758 1277.07 645.447C1274.63 652.279 1271.63 657.302 1268.09 660.517C1264.83 663.33 1260.61 664.736 1255.44 664.736H1221.55C1216.38 664.736 1212.02 663.33 1208.49 660.517C1205.22 657.302 1202.36 652.279 1199.91 645.447C1195.13 632.413 1175.82 635.841 1175.82 649.724V803.122C1175.82 810.757 1174.6 816.383 1172.15 820C1169.97 823.215 1166.3 824.822 1161.13 824.822ZM1365.08 1853.5C1376.13 1853.5 1385.08 1844.55 1385.08 1833.5V1817.74C1385.08 1812.9 1381.16 1808.98 1376.32 1808.98C1371.5 1808.98 1367.58 1805.07 1367.57 1800.25L1366.02 1264.68C1366.01 1262.29 1363.08 1261.14 1361.45 1262.89C1345.42 1282.1 1328.57 1300.6 1310.96 1318.34C1307.2 1322.14 1305.05 1327.25 1305.05 1332.6V1833.5C1305.05 1844.55 1314.01 1853.5 1325.05 1853.5H1365.08ZM1245.78 1853.5C1246.82 1853.5 1247.86 1853.43 1248.88 1853.23C1269.34 1849.27 1285.05 1831.04 1285.05 1809.51L1289.29 1469C1289.29 1447.17 1274.85 1390.26 1254.32 1378.61C1250.13 1376.22 1245.19 1378.2 1241.45 1381.24C1233.04 1388.06 1224.5 1394.73 1215.83 1401.24L1194.02 1418.61C1193.27 1419.2 1192.49 1419.74 1191.66 1420.22C1191.17 1420.51 1190.67 1420.8 1190.17 1421.09L1189.96 1421.22L1189.95 1421.22C1170.11 1432.77 1147.78 1445.78 1147.78 1469L1143.54 1809.51C1143.54 1831.04 1159.25 1849.27 1179.71 1853.23C1180.73 1853.43 1181.77 1853.5 1182.81 1853.5H1245.78ZM1085.33 1853.5C1086.37 1853.5 1087.41 1853.43 1088.43 1853.23C1108.89 1849.27 1124.6 1831.04 1124.6 1809.51V1553.5C1124.6 1530.49 1109.17 1490.35 1086.95 1485.9C1084.31 1485.38 1081.63 1486.04 1079.15 1487.09L1027.61 1508.98C1026.45 1509.37 1025.29 1509.76 1024.15 1510.17C1020.55 1511.64 1016.93 1513.09 1013.31 1514.52C995.905 1522.5 983.092 1534.13 983.092 1553.5V1809.51C983.092 1831.04 998.801 1849.27 1019.27 1853.23C1020.28 1853.43 1021.32 1853.5 1022.36 1853.5H1085.33ZM943.13 1853.5C954.176 1853.5 963.13 1844.55 963.13 1833.5V1544.14C963.13 1538.53 957.796 1534.45 952.376 1535.91C938.92 1540.08 925.324 1543.92 911.597 1547.44C905.038 1549.12 900.4 1555 900.399 1561.77V1561.77C900.391 1623.99 900.389 1639.12 902.818 1653.84C903.598 1658.57 904.629 1663.26 905.991 1669.45L905.992 1669.46L905.993 1669.46C907.327 1675.53 902.7 1681.24 896.489 1681.24H892.64C884.446 1681.24 878.341 1673.7 880.26 1665.73C880.398 1665.16 880.532 1664.61 880.663 1664.06C885.606 1643.6 886.399 1640.32 886.4 1553.65C886.4 1553.61 886.381 1553.58 886.353 1553.55C886.326 1553.53 886.291 1553.52 886.254 1553.53C870.734 1557 855.057 1560.07 839.235 1562.7C829.44 1564.33 822.15 1572.73 822.15 1582.66V1833.5C822.15 1844.55 831.105 1853.5 842.15 1853.5H865.22C876.266 1853.5 885.223 1844.52 885.218 1833.47C885.194 1779.08 884.958 1765.74 882.628 1752.78C881.945 1748.98 881.082 1745.21 879.992 1740.44L879.991 1740.44C878.261 1732.89 884.027 1725.76 891.776 1725.76H893.522C901.262 1725.76 907.021 1732.88 905.294 1740.42L905.29 1740.44L905.289 1740.44C904.199 1745.21 903.335 1748.98 902.652 1752.78C900.323 1765.74 900.087 1779.08 900.063 1833.47C900.058 1844.52 909.015 1853.5 920.06 1853.5H943.13ZM762.881 1853.5C763.919 1853.5 764.959 1853.43 765.978 1853.23C786.443 1849.27 802.151 1831.04 802.151 1809.51V1743.83C802.151 1732.78 793.197 1723.83 782.151 1723.83H760.476C749.507 1723.83 740.611 1732.67 740.381 1743.64C739.949 1764.34 739.243 1772.63 738.341 1783.22C737.858 1788.89 737.32 1795.22 736.737 1804.46C736.558 1807.29 734.211 1809.51 731.37 1809.51C728.55 1809.51 726.213 1807.32 726.006 1804.51C725.344 1795.55 724.721 1788.95 724.164 1783.05L724.163 1783.04L724.163 1783.04L724.163 1783.04L724.163 1783.03L724.162 1783.03L724.162 1783.03C722.63 1766.79 721.591 1755.79 721.591 1715.35C721.591 1674.26 722.664 1662.45 724.237 1645.13C724.776 1639.2 725.373 1632.62 726.007 1624C726.213 1621.18 728.55 1619 731.37 1619C734.211 1619 736.558 1621.22 736.736 1624.05C737.3 1633.06 737.823 1639.47 738.294 1645.25C739.217 1656.58 739.939 1665.45 740.38 1686.53C740.609 1697.49 749.506 1706.34 760.474 1706.34H782.151C793.197 1706.34 802.151 1697.39 802.151 1686.34V1619C802.151 1596.2 784.327 1574.93 762.071 1572.28C761.055 1572.16 760.028 1572.16 759.008 1572.24C741.458 1573.5 723.764 1574.24 705.94 1574.44L705.161 1574.48C680.781 1574.48 660.641 1594.62 660.641 1619V1809.51C660.641 1831.04 676.35 1849.27 696.814 1853.23C697.833 1853.43 698.873 1853.5 699.912 1853.5H762.881ZM602.937 1853.5C603.975 1853.5 605.015 1853.43 606.034 1853.23C626.499 1849.27 642.207 1831.04 642.207 1809.51V1706.34C642.207 1684.08 627.367 1661.82 596.097 1661.82H581.647C570.601 1661.82 561.647 1652.87 561.647 1641.82V1620.01C561.647 1614.22 566.344 1609.52 572.137 1609.52C573.946 1609.52 575.886 1609.85 577.019 1611.26C577.341 1611.66 577.629 1612.12 577.888 1612.66C581.726 1620.68 587.141 1628.25 596.03 1628.25H623.41C633.524 1628.25 641.473 1619.6 640.617 1609.52C640.617 1588.43 625.54 1573.5 605.685 1569.86C603.13 1569.6 600.578 1569.32 598.029 1569.03C597.888 1569.03 597.747 1569.02 597.606 1569.02C596.602 1568.99 595.598 1568.92 594.605 1568.77L590.632 1568.17C575.178 1566.3 559.85 1564.02 544.658 1561.35C543.381 1561.12 542.082 1561 540.788 1561.09C517.613 1562.74 499.107 1586.02 499.107 1609.52L500.697 1661.82C500.697 1684.08 515.007 1706.34 546.277 1706.34H560.501C571.635 1706.34 580.643 1715.44 580.376 1726.57C579.824 1749.56 578.863 1766.37 577.885 1783.5L577.885 1783.51L577.884 1783.52L577.884 1783.52L577.883 1783.53V1783.53C577.496 1790.31 577.106 1797.13 576.738 1804.41C576.593 1807.27 574.241 1809.51 571.385 1809.51H569.736C567.865 1809.51 566.31 1808.07 566.172 1806.2C564.62 1785.28 563.111 1764.96 562.483 1743.83C562.155 1732.79 553.223 1723.83 542.177 1723.83H520.697C509.651 1723.83 500.697 1732.78 500.697 1743.83V1809.51C500.697 1831.04 516.406 1849.27 536.87 1853.23C537.889 1853.43 538.929 1853.5 539.968 1853.5H602.937ZM349.568 1853.5C373.948 1853.5 402.568 1833.36 402.568 1808.98V1745.91C402.568 1720.21 398.721 1703.58 391.275 1691.56C382.996 1678.19 383.85 1659 392.546 1645.9C399.158 1635.94 402.568 1621.7 402.568 1597.5V1565C402.568 1549.12 390.419 1527.4 375.209 1514.19C373.743 1512.92 372.045 1511.95 370.246 1511.22C335.109 1496.96 301.12 1480.47 268.456 1461.91C265.788 1460.57 262.648 1462.51 262.648 1465.49V1833.5C262.648 1844.55 271.603 1853.5 282.648 1853.5H349.568ZM224.037 1853.5C235.365 1853.5 244.436 1844.3 244.014 1832.98C241.25 1758.92 231.497 1506.49 224.669 1443.21C224.061 1437.57 220.853 1432.81 216.132 1429.67C193.507 1414.6 171.631 1398.49 150.571 1381.42C138.005 1371.23 119.3 1378.61 118.278 1394.75C111.543 1501.14 102.331 1758.48 99.7291 1832.97C99.3343 1844.28 108.399 1853.5 119.711 1853.5H142.089C153.135 1853.5 162.089 1844.55 162.089 1833.5V1700.06C162.089 1694.65 166.479 1690.26 171.894 1690.26C177.309 1690.26 181.699 1694.65 181.699 1700.06V1833.5C181.699 1844.55 190.654 1853.5 201.699 1853.5H224.037ZM68.03 1853.5C79.0757 1853.5 88.03 1844.55 88.03 1833.5V1817.73C88.03 1812.9 84.1147 1808.98 79.285 1808.98C74.4553 1808.98 70.54 1805.06 70.54 1800.23V1315.83C70.54 1310.67 68.5374 1305.72 64.9992 1301.96C47.448 1283.33 30.7132 1263.91 14.8521 1243.78C12.4671 1241.07 8 1242.76 8 1246.37V1833.5C8 1844.55 16.9543 1853.5 28 1853.5H68.03ZM181.141 1636.25C181.172 1641.49 176.922 1645.74 171.683 1645.74C166.402 1645.74 162.136 1641.42 162.213 1636.14C162.809 1595.55 164.23 1561.39 166.475 1531.47C166.686 1528.65 169.034 1526.49 171.854 1526.49C174.708 1526.49 177.07 1528.7 177.248 1531.55C179.113 1561.48 180.895 1595.65 181.141 1636.25ZM321.557 1639.77C321.302 1642.92 323.801 1645.74 326.963 1645.74C328.522 1645.74 329.984 1645.03 330.743 1643.66C333.687 1638.37 340.558 1622.19 340.558 1586.38C340.558 1551.04 334.185 1534.81 331.323 1529.31C330.544 1527.81 328.97 1527.02 327.283 1527.02C323.952 1527.02 321.319 1529.99 321.582 1533.31C322.207 1541.18 323.068 1557.32 323.068 1586.38C323.068 1615.84 322.183 1632.01 321.557 1639.77ZM327.283 1808.98C328.97 1808.98 330.544 1808.19 331.323 1806.69C334.185 1801.19 340.558 1784.96 340.558 1749.62C340.558 1713.81 333.687 1697.63 330.743 1692.34C329.984 1690.97 328.522 1690.26 326.963 1690.26C323.801 1690.26 321.302 1693.08 321.557 1696.23C322.183 1703.99 323.068 1720.16 323.068 1749.62C323.068 1778.68 322.207 1794.82 321.582 1802.69C321.319 1806.01 323.952 1808.98 327.283 1808.98ZM1048.48 1804.53C1048.66 1807.33 1051 1809.51 1053.81 1809.51C1056.66 1809.51 1059 1807.29 1059.16 1804.45C1061.18 1766.9 1063.12 1723.27 1063.12 1668C1063.12 1622.85 1061.83 1601.96 1060.25 1576.52L1060.25 1576.52L1060.25 1576.51L1060.25 1576.51L1060.25 1576.5L1060.25 1576.47L1060.24 1576.42C1059.89 1570.79 1059.53 1564.95 1059.17 1558.56C1059 1555.72 1056.66 1553.5 1053.81 1553.5C1051 1553.5 1048.66 1555.68 1048.47 1558.49C1048.16 1562.77 1047.87 1566.82 1047.59 1570.71L1047.58 1570.88L1047.57 1570.93L1047.57 1570.95V1570.95C1045.53 1599.09 1044.04 1619.6 1044.04 1668C1044.04 1723.31 1045.99 1766.95 1048.48 1804.53ZM1219.61 1804.45C1219.45 1807.29 1217.11 1809.51 1214.26 1809.51C1211.45 1809.51 1209.11 1807.33 1208.93 1804.53C1206.43 1766.95 1204.49 1723.31 1204.49 1668C1204.49 1612.55 1210.35 1515.84 1213.17 1473.95C1213.35 1471.15 1215.69 1469 1218.5 1469C1221.35 1469 1223.69 1471.22 1223.81 1474.06C1224.95 1502.08 1224.46 1554.49 1224.01 1602.71V1602.72V1602.72V1602.73V1602.74V1602.76V1602.78L1224.01 1602.8C1223.79 1626.73 1223.57 1649.63 1223.57 1668C1223.57 1723.27 1221.63 1766.9 1219.61 1804.45Z" fill="#5B5B5B"/>
</g>
<path fill-rule="evenodd" clip-rule="evenodd" d="M148 1135C148 1178.63 120.242 1214 86 1214C120.242 1214 148 1249.37 148 1293C148 1249.37 175.758 1214 210 1214C175.758 1214 148 1178.63 148 1135Z" fill="white"/>
<path fill-rule="evenodd" clip-rule="evenodd" d="M1288.47 912C1263.76 912 1243.73 886.48 1243.73 855H1243.73C1243.73 886.48 1223.71 912 1199 912C1199 912 1199 912 1199 912C1223.71 912 1243.73 937.52 1243.73 969C1243.73 937.52 1263.76 912 1288.47 912Z" fill="white"/>
<path d="M439.723 1080.13C428.57 1081.87 418.422 1079.61 408.499 1075.79C406.739 1075.11 404.878 1074.35 405.211 1072.03C405.608 1069.26 407.901 1070.05 409.59 1070.19C422.154 1071.22 431.048 1063.95 439.579 1056.49C455.797 1042.32 463.721 1023.44 469.098 1003.1C474.344 983.263 476.42 962.934 478.901 942.685C481.213 923.809 489.152 908.059 501.379 893.625C517.768 874.281 536.646 857.839 556.539 842.378C569.235 832.51 583.428 825.834 599.076 822.218C600.855 821.807 602.678 821.191 604.461 821.25C624.649 821.916 644.029 816.637 663.687 813.378C679.482 810.759 695.205 812.212 710.92 814.431C729.977 817.122 748.196 815.536 764.132 803.246C765.367 802.294 766.677 801.359 768.147 802.586C769.516 803.731 769.165 805.339 768.654 806.769C766.176 813.702 763.055 820.302 758.4 826.084C757.685 826.971 756.982 827.867 756.374 828.631C756.851 830.348 758.249 830.314 759.263 830.625C767.147 833.038 774.428 836.708 781.113 841.453C800.67 855.334 820.4 868.962 837.878 885.576C852.05 899.048 861.01 914.941 863.685 934.406C864.612 941.146 865.869 947.844 866.853 954.587C868.152 963.49 872.696 971.2 877.492 978.617C884.184 988.967 891.28 999.056 898.083 1009.34C907.187 1023.09 913.01 1038.17 913.224 1054.71C913.439 1071.31 908.895 1086.67 897.135 1099.16C892.092 1104.51 886.649 1109.43 880.263 1113.16C876.953 1115.09 873.475 1116.73 869.48 1116.63C868.065 1116.6 866.781 1116.23 866.342 1114.7C865.883 1113.09 866.922 1112.28 868.163 1111.57C884.82 1102.07 887.35 1093.5 878.547 1076.31C877.495 1074.25 876.671 1072.02 874.169 1070.08C871.346 1080.18 867.241 1089.62 859.757 1096.57C846.071 1109.28 834.391 1124.44 817.05 1132.86C813.755 1134.46 812.339 1137.18 811.642 1140.69C808.417 1156.98 800.777 1170.91 789.349 1182.96C778.911 1193.97 768.739 1205.2 756.356 1214.15C751.008 1218.01 745.055 1220.84 738.27 1224.29C748.996 1227.47 758.579 1230.07 768.014 1233.14C785.919 1238.96 803.131 1246.77 820.913 1252.78C836.012 1257.88 846.748 1267.28 856.12 1279.23C861.684 1286.33 866.61 1293.87 871.088 1301.67C881.536 1319.87 891.582 1338.31 902.198 1356.41C907.159 1364.87 913.039 1372.79 918.548 1380.93C921.197 1384.84 925.2 1387.41 928.532 1390.64C931.338 1393.37 934.403 1392.22 937.115 1390.11C944.907 1384.06 950.134 1375.85 955.105 1367.6C966.06 1349.44 973.81 1329.68 982.509 1310.41C985.744 1303.24 989.697 1296.48 994.004 1289.97C998.966 1282.47 1007.12 1279.24 1015.37 1278.48C1028.02 1277.3 1037.69 1271.8 1047.18 1263.7C1058.01 1254.46 1071.21 1250.51 1085.86 1253.38C1101.82 1256.51 1115.96 1250.95 1129.64 1243.58C1130.81 1242.95 1131.87 1242.13 1133.06 1241.53C1136.63 1239.72 1140.39 1238.55 1143.8 1241.56C1146.92 1244.31 1145.92 1247.98 1145.02 1251.35C1143.44 1257.26 1141.65 1263.11 1139.71 1269.81C1144.19 1268.16 1145 1264.8 1146.05 1261.96C1149.04 1253.84 1151.66 1245.59 1154.51 1237.42C1156.96 1230.37 1161.67 1226.8 1167.98 1227.02C1174.31 1227.24 1177.51 1231.09 1176.56 1237.45C1176.28 1239.4 1175.24 1241.23 1175.67 1243.38C1177.66 1243.79 1179.07 1242.38 1180.66 1241.7C1184.21 1240.16 1187.84 1239.07 1191.74 1238.95C1195.33 1238.83 1197.2 1240.88 1198.28 1244C1199.42 1247.28 1197.05 1248.44 1194.87 1249.74C1186.7 1254.61 1178.49 1259.5 1173.26 1267.82C1169.5 1273.8 1167.76 1280.69 1165.85 1287.38C1163.98 1293.9 1159.71 1297.85 1154.23 1300.98C1152.47 1301.98 1150.7 1302.95 1149.55 1304.63C1145.09 1311.08 1139 1315.25 1131.46 1317.11C1124.27 1318.89 1120.21 1325.2 1114.11 1328.55C1110.33 1330.62 1106.58 1331.88 1102.25 1331.66C1099.95 1331.54 1097.5 1331.62 1095.34 1332.29C1087.6 1334.68 1079.85 1335.29 1071.71 1334.78C1061.1 1334.11 1051.15 1338.25 1041.09 1341.09C1038.53 1341.81 1037.64 1344.59 1036.44 1346.74C1023.86 1369.33 1012.73 1392.51 1004.54 1417.16C997.465 1438.47 989.458 1459.57 977.475 1478.77C963.543 1501.08 946.039 1520.05 923.761 1534.39C918.449 1537.81 913.519 1541.83 908.369 1545.5C901.692 1550.27 896.563 1550.13 890.269 1544.79C882.399 1538.11 874.077 1531.93 866.94 1524.42C864.805 1522.17 863 1521.7 860.034 1523.3C855.576 1525.69 851.747 1528.86 847.817 1531.91C841.855 1536.53 835.425 1540.31 828.662 1543.59C824.261 1545.73 820.296 1545.45 815.908 1543.06C799.009 1533.88 802.759 1533.3 785.383 1541.2C767.673 1549.25 748.643 1552.83 729.504 1555.75C717.041 1557.65 704.69 1560.69 691.939 1559.62C662.737 1557.18 634.42 1551.11 607.668 1538.76C576.418 1524.33 546.192 1508.2 520.098 1485.34C512.304 1478.51 505.111 1471.05 499.832 1462.06C498.3 1459.45 495.542 1459.09 493.703 1457.32C476.176 1440.51 456.188 1426.19 441.276 1406.73C429.618 1391.51 420.679 1374.92 417.692 1355.58C417.168 1352.19 417.735 1349.22 419.051 1346.4C434.362 1313.5 447.726 1279.65 466.35 1248.35C471.384 1239.89 477.427 1232.13 483.472 1224.37C491.677 1213.82 502.573 1207.56 515.363 1205.38C533.553 1202.29 551.843 1199.41 570.401 1199.53C575.225 1199.56 580.045 1200.15 584.869 1200.2C590.817 1200.26 593.441 1197.51 593.229 1191.6C592.891 1182.23 589.292 1174.23 577.974 1170.08C574.887 1168.95 572.675 1166.78 569.974 1164.46C566.107 1174.21 561.405 1183 549.993 1186.26C549.195 1182.73 550.606 1180.7 551.413 1178.67C558.816 1159.98 551.767 1148.25 534.412 1137.78C533.034 1136.94 531.696 1137.02 530.128 1137.42C522.173 1139.48 516.326 1143.84 513.646 1151.87C510.792 1160.41 514.51 1167.09 519.786 1173.3C520.32 1173.93 521.024 1174.41 521.637 1174.97C522.787 1176.03 523.941 1177.22 522.678 1178.79C521.528 1180.22 519.95 1179.81 518.592 1179.01C508.786 1173.3 500.341 1166.22 495.228 1155.75C494.156 1153.56 493.83 1150.96 491.636 1148.85C487.938 1152.26 484.366 1155.68 480.653 1158.94C475.483 1163.48 469.868 1167.33 463.126 1169.2C460.954 1169.8 458.587 1170.1 457.42 1167.66C456.195 1165.11 458.616 1164.52 460.149 1163.25C469.003 1155.93 473.003 1146.09 473.998 1134.93C474.655 1127.55 473.932 1120.2 471.158 1113.31C466.761 1102.4 465.865 1090.45 460.959 1079.71C460.21 1078.07 459.639 1076.35 458.852 1074.32C452.634 1076.88 446.741 1079.66 439.723 1080.13ZM439.315 1322.74C437.578 1326.71 435.546 1330.57 434.156 1334.65C429.111 1349.47 428.317 1364.15 435.546 1378.69C443.504 1394.69 454.371 1408.49 466.734 1421.24C472.14 1426.81 477.701 1432.17 484.768 1436.31C483.809 1428.84 482.803 1421.81 482.022 1414.75C480.689 1402.7 479.256 1390.68 478.723 1378.54C478.088 1364.09 476.341 1349.67 477.52 1335.18C478.443 1323.84 478.326 1312.55 475.697 1301.43C473.678 1292.89 473.795 1284.26 474.126 1275.62C474.242 1272.6 475.242 1269.7 477.191 1267.3C478.779 1265.35 480.918 1264.4 483.413 1265.18C485.881 1265.96 485.717 1268.17 485.678 1270.18C485.636 1272.34 485.547 1274.51 485.38 1276.66C484.47 1288.45 483.394 1300.26 483.839 1312.06C484.389 1326.68 485.36 1341.31 486.868 1355.85C489.128 1377.65 491.581 1399.44 494.59 1421.16C497.481 1442.04 505.19 1459.98 521.55 1474.12C537.603 1488 554.183 1501.05 572.236 1512.19C577.909 1515.69 583.649 1519.11 590.791 1522.04C581.528 1511.91 572.603 1502.96 564.651 1493.11C540.373 1463.03 521.622 1429.8 507.615 1393.84C503.266 1382.67 498.6 1371.62 494.915 1360.21C494.131 1357.77 494.108 1355.6 496.453 1353.99C498.94 1352.28 500.935 1353.71 502.753 1355.2C507.052 1358.72 509.306 1363.47 510.707 1368.74C513.476 1379.16 514.417 1390.1 518.536 1400.12C530.894 1430.17 547.092 1458.08 566.916 1483.82C580.584 1501.57 595.256 1518.24 615.183 1529.56C637.777 1542.41 662.088 1549.97 687.78 1550.67C705.095 1551.13 722.672 1549.36 739.871 1545.93C753.441 1543.23 766.861 1539.95 779.885 1535.23C787.001 1532.65 788.836 1528.62 786.183 1521.55C785.132 1518.76 783.684 1516.12 782.45 1513.39C778.341 1504.31 772.447 1495.98 770.366 1486.05C767.507 1472.41 763.73 1458.97 762.379 1445.01C760.754 1428.2 760.081 1411.49 763.81 1394.85C769.03 1371.57 779.273 1350.27 789.817 1329.09C791.231 1326.25 792.809 1323.49 795.013 1321.18C796.784 1319.32 798.828 1317.56 801.561 1319.03C804.118 1320.4 804.35 1323.02 804 1325.59C803.41 1329.91 801.01 1333.41 798.621 1336.89C798.554 1336.99 798.486 1337.08 798.419 1337.18C796.073 1340.61 793.274 1343.73 791.925 1347.79C788.56 1357.9 785.757 1368.18 783.731 1378.63C777.301 1411.82 775.816 1445.38 776.56 1479.08C776.602 1480.96 777.007 1482.86 777.404 1484.71C777.422 1484.8 777.44 1484.88 777.458 1484.97C780.23 1497.94 787.892 1508.24 795.9 1518.32C801.422 1525.27 807.471 1531.61 815.728 1535.46C819.746 1537.34 823.78 1539.19 828.117 1537.22C835.292 1533.97 842.06 1529.79 847.253 1523.87C852.661 1517.71 854.8 1508.17 844.617 1502.14C837.918 1512.43 832.497 1523.34 829.232 1536.54C826.5 1532.51 826.879 1529.71 827.677 1527.05C828.868 1523.07 830.083 1519.05 831.774 1515.27C838.787 1499.58 847.108 1484.56 856.004 1469.89C871.764 1443.9 888.622 1418.74 912.159 1398.85C914.66 1396.74 917.743 1395.2 919.605 1392.03C919.064 1391.22 918.59 1390.36 917.987 1389.61C903.032 1370.99 889.759 1351.29 878.418 1330.24C878.319 1330.05 878.221 1329.87 878.122 1329.69C868.11 1311.1 858.072 1292.46 844.097 1276.4C838.367 1269.81 831.854 1263.94 823.474 1261.03C801.93 1253.56 780.187 1246.65 758.707 1239C751.396 1236.39 746.665 1235.96 740.798 1243.09C730.785 1255.26 718.492 1265.5 706.475 1275.81C694.967 1285.67 683.33 1295.4 669.288 1301.7C658.29 1306.64 646.929 1308.23 635.159 1305.71C600.865 1298.36 584.499 1269.51 582.027 1239.03C581.219 1229.08 584.033 1219.67 587.434 1210.27C584.135 1209.15 581.068 1208.81 577.913 1208.74C561.118 1208.37 544.46 1210.03 527.777 1211.69C527.724 1211.7 527.671 1211.7 527.618 1211.71C510.338 1213.43 497.113 1220.83 486.913 1235.33C467.815 1262.49 453.068 1291.89 439.315 1322.74ZM768.3 1017.85C780.185 999.402 785.418 979.069 785.435 957.274C785.438 953.111 785.255 948.949 785.16 944.787C785.116 942.835 785.5 941.02 787.6 940.351C789.777 939.659 791.081 941.158 792.054 942.74C793.006 944.288 793.786 945.97 794.426 947.673C796.064 952.034 797.557 956.448 799.152 960.824C811.83 995.613 836.392 1016.16 873.226 1022.38C872.03 1020.6 870.953 1018.96 869.838 1017.34C865.027 1010.38 861.874 1002.75 860.932 994.325C860.28 988.497 863.388 986.28 868.83 988.492C870.709 989.255 872.512 990.203 875.508 991.612C865.16 976.797 858.37 961.94 856.44 945.154C855.719 938.888 855.823 932.531 854.128 926.374C850.288 912.417 842.059 901.346 831.768 891.49C818.149 878.445 803.691 866.409 788.62 855.108C775.1 844.97 761.178 835.594 743.459 834.662C742.64 834.618 741.788 834.473 741.117 832.452C748.651 826.437 756.864 820.253 761.455 810.134C746.97 819.386 731.588 822.802 715.265 821.301C715.049 821.282 714.832 821.262 714.616 821.242C698.391 819.749 682.154 818.256 665.972 820.662C638.894 824.69 614.329 835.131 593.645 853.122C560.721 881.76 543.113 919.324 532.644 960.894C530.348 970.009 530.808 978.91 531.732 987.978C531.871 989.344 532.181 990.619 533.131 991.637C545.471 1004.86 552.489 1020.56 554.987 1038.39C555.354 1041.01 556.715 1042.29 559.664 1042.43C572.044 1043.05 584.266 1041.66 596.303 1039.18C624.087 1033.46 648.266 1019.81 671.226 1003.82C683.68 995.143 695.254 985.351 705.741 974.32C706.859 973.144 708.136 970.735 710.143 972.751C711.594 974.209 710.793 976.179 709.6 977.749C708.895 978.678 708.177 979.597 707.48 980.531C702.719 986.918 697.144 992.591 691.402 998.256C691.908 998.507 692.077 998.665 692.18 998.63C692.809 998.417 693.423 998.161 694.041 997.918C716.4 989.131 732.778 973.772 743.986 952.655C746.429 948.051 749.417 947.962 752.511 952.19C753.388 953.389 754.011 954.779 754.705 956.106C761.666 969.423 763.085 983.783 761.43 998.326C760.406 1007.33 758.153 1016.15 754.015 1024.58C751.484 1029.74 747.631 1034.07 744.841 1040.48C754.688 1034.15 761.792 1026.82 768.3 1017.85ZM814.987 1108.68C820.849 1106.24 826.444 1103.28 831.784 1099.87C842.761 1092.87 851.695 1084.07 854.755 1070.9C857.661 1058.39 859.168 1045.76 857.22 1032.83C856.497 1028.02 854.593 1025.61 849.975 1024.17C834.855 1019.46 821.776 1011.23 811.539 999.14C806.797 993.542 801.226 991.334 794.292 990.72C789.86 990.327 787.802 991.7 786.483 996.068C779.699 1018.53 765.223 1034.9 745.368 1046.89C738.825 1050.84 731.426 1052.25 724.267 1054.39C723.127 1054.73 721.856 1054.87 721.18 1053.58C720.423 1052.14 721.129 1051 722.313 1050.15C723.259 1049.48 724.254 1048.86 725.258 1048.27C746.755 1035.66 753.685 1015.12 755.94 992.014C756.214 989.2 755.143 987.685 752.159 987.423C752.041 987.413 751.923 987.402 751.806 987.392C740.15 986.366 728.825 985.37 718.608 993.765C704.576 1005.29 688.791 1013.72 670.533 1016.74C668.115 1017.14 665.586 1017.86 663.496 1019.09C642.164 1031.67 620.279 1042.81 595.334 1046.28C592.381 1046.69 591.55 1048.25 591.615 1051.03C591.732 1056.02 591.855 1060.97 592.613 1065.94C596.473 1091.27 615.371 1109.52 640.64 1113.27C660.14 1116.17 678.421 1113.32 695.927 1104.57C707.656 1098.7 720.045 1095.02 733.137 1094.32C747.736 1093.53 760.871 1098.87 773.744 1104.96C786.759 1111.13 800.338 1111.62 814.987 1108.68ZM1088.87 1281.53C1089.49 1276.92 1091.82 1272.61 1091.85 1267.48C1089.21 1268.22 1088.02 1269.81 1086.64 1271.24C1080.63 1277.45 1078.68 1285.26 1077.67 1293.46C1077.22 1297.11 1077.12 1301.23 1073.63 1303.22C1069.15 1305.77 1066.41 1309.4 1064.29 1313.89C1062.71 1317.24 1060.1 1318.7 1056.62 1316.21C1054.72 1314.85 1052.65 1314.68 1050.45 1314.68C1050.34 1314.68 1050.23 1314.68 1050.12 1314.68C1046.74 1314.69 1043.36 1314.7 1040.01 1313.96C1037.98 1313.51 1035.66 1313.3 1036.1 1310.54C1036.54 1307.77 1039.29 1307.09 1041.4 1307.12C1050.57 1307.25 1060.57 1311.09 1067.01 1300.53C1067.47 1299.78 1068.8 1299.61 1069.52 1298.95C1070.35 1298.18 1071.46 1297.24 1071.59 1296.26C1072.54 1288.85 1074.8 1281.8 1077.43 1275.22C1075.85 1273.24 1072.93 1274.03 1072.53 1271.33C1073.77 1268.93 1076.07 1269.21 1078.17 1269.25C1080.32 1269.29 1082.09 1268.84 1083.32 1266.9C1085.36 1263.69 1088.24 1261.62 1092.07 1260.88C1089.86 1260.69 1087.72 1260.88 1085.62 1260.65C1070.79 1259.04 1058.1 1263.15 1047.38 1273.79C1040.16 1280.96 1031.32 1284.57 1020.88 1284.86C1006.01 1285.26 996.014 1292.6 991.623 1305.64C985.709 1323.21 978.184 1340.1 969.514 1356.43C961.066 1372.35 951.511 1387.53 937.944 1399.84C937.832 1399.94 937.721 1400.04 937.61 1400.15C919.208 1416.84 900.781 1433.56 888.14 1455.43C887.974 1455.72 887.769 1455.99 887.58 1456.26C886.509 1457.81 885.144 1458.6 883.334 1457.57C881.434 1456.49 882.341 1454.98 883.011 1453.69C884.231 1451.32 885.465 1448.96 886.911 1446.73C894.283 1435.39 901.437 1423.9 909.863 1413.27C889.664 1433.37 873.266 1456.42 858.263 1480.44C854.509 1486.45 852.334 1494.08 857.331 1501.2C867.733 1516.03 880.167 1528.89 894.95 1539.39C897.666 1541.32 900.682 1541.35 903.861 1539.51C920.754 1529.78 935.855 1517.69 948.471 1502.98C967.081 1481.28 979.849 1455.91 990.808 1429.73C998.707 1410.85 1004.04 1390.95 1013.04 1372.49C1019.17 1359.93 1025.1 1347.21 1034.29 1336.44L1034.29 1336.44C1036.37 1334 1038.69 1331.29 1041.98 1331.32C1049.04 1331.39 1055.78 1329.36 1062.77 1328.96C1072.99 1328.38 1083.39 1328.64 1093.01 1323.96C1096.69 1322.17 1100.85 1322.15 1104.74 1323.5C1109.03 1324.99 1112.41 1323.88 1114.69 1320.2C1118.85 1313.51 1125.11 1310.65 1132.54 1309.78C1135.95 1309.38 1138.32 1307.84 1140.11 1304.86C1143.51 1299.21 1147.55 1294.24 1154.33 1292.26C1157.43 1291.35 1158.33 1288.43 1158.98 1285.63C1162.1 1272.19 1164.9 1258.68 1168.64 1245.38C1169.72 1241.55 1171.2 1237.45 1169.26 1233.24C1164.73 1233.38 1161.7 1235.34 1160.63 1239.57C1158.63 1247.46 1155.32 1255.03 1154.59 1263.21C1153.64 1273.72 1148.51 1281.36 1139.17 1286.07C1135.88 1287.73 1134.19 1290.11 1133.45 1293.62C1132.75 1296.91 1131.33 1299.94 1128.53 1302.09C1128.5 1302.11 1128.48 1302.13 1128.45 1302.15C1127.13 1303.16 1125.59 1304.34 1124.03 1303.25C1122.29 1302.04 1123.36 1300.29 1124.02 1298.76C1125 1296.47 1126.2 1294.22 1126.81 1291.83C1129.34 1281.83 1131.5 1271.75 1134.71 1261.91C1136.1 1257.63 1138.01 1253.19 1136.53 1248.1C1132.83 1248.71 1130.7 1250.99 1129.52 1253.99C1127.32 1259.58 1124.46 1264.76 1121 1269.66C1119.34 1271.99 1118.49 1274.76 1117.95 1277.54C1117.03 1282.27 1116.21 1287.03 1115.61 1291.81C1114.99 1296.8 1112.96 1300.31 1107.59 1301.19C1104.4 1301.71 1101.71 1303.42 1099.02 1305.13C1097.36 1306.18 1095.39 1307.66 1093.71 1305.5C1092.24 1303.58 1093.42 1301.73 1094.87 1300.17C1097.63 1297.19 1100.82 1294.83 1104.75 1293.61C1108.78 1292.37 1107.94 1288.57 1108.87 1285.75C1109.24 1284.64 1109.06 1283.08 1107.56 1282.98C1104.01 1282.73 1101.06 1280.61 1097.53 1279.77C1097.02 1280.66 1096.46 1281.3 1096.24 1282.05C1093.62 1291.14 1090.25 1300.03 1089.36 1309.56C1088.9 1314.43 1087.04 1318.6 1082.69 1321.26C1081.27 1322.14 1079.65 1323.02 1078.12 1321.52C1076.39 1319.82 1077.19 1318.06 1078.58 1316.7C1081.73 1313.65 1082.61 1309.99 1082.18 1305.76C1082.06 1304.48 1082.2 1302.98 1082.77 1301.86C1085.95 1295.7 1086.61 1288.8 1088.87 1281.53ZM706.965 1223.36C708.607 1223.11 710.255 1222.89 711.89 1222.6C740.639 1217.51 762.752 1201.83 781.571 1180.15C790.782 1169.54 797.921 1158.42 799.851 1144.31C800.34 1140.73 800.239 1138.34 795.782 1137.48C789.234 1136.22 783.767 1132.65 779.428 1127.55C773.312 1120.38 765.917 1114.78 758.078 1109.65C743.141 1099.87 727.647 1099.35 711.54 1106.36C701.542 1110.71 692.843 1117.2 683.679 1122.93C671.62 1130.48 659.154 1137.05 644.589 1138.27C628.628 1139.6 613.345 1137.61 599.634 1128.67C593.816 1124.88 588.313 1120.6 582.472 1116.4C579.728 1119.02 577.072 1121.76 574.203 1124.25C566.695 1130.78 566.561 1131.22 571.162 1140.49C571.827 1141.83 572.582 1143.13 573.301 1144.44C584.131 1164.21 599.846 1179.39 618.635 1191.35C636.752 1202.89 655.135 1214.11 676.207 1219.7C685.985 1222.3 695.754 1225.27 706.965 1223.36ZM687.076 1280.6C696.52 1273.43 705.887 1266.16 714.569 1257.67C675.64 1235.54 637.192 1214.09 600.61 1188.2C602.603 1197.98 604.479 1207.05 606.296 1216.12C608.221 1225.74 609.601 1235.44 610.595 1245.2C610.772 1246.93 611.188 1249.26 608.779 1249.78C606.193 1250.33 605.948 1247.83 605.528 1246.21C604.45 1242.03 603.724 1237.77 602.686 1233.58C602.11 1231.26 601.969 1228.54 598.396 1228.42C594.763 1228.3 592.983 1230.01 591.963 1233.32C589.954 1239.84 589.861 1246.42 591.241 1252.99C596.163 1276.45 610.719 1290.54 633.771 1296.1C638.589 1297.26 643.417 1298.19 648.543 1297.64C663.004 1296.11 675.019 1289.24 687.076 1280.6ZM546.963 1082.5C549.705 1072.26 550.095 1061.86 548.995 1051.37C547.131 1033.6 543.46 1016.42 531.525 1002.28C527.294 997.265 524.162 992.159 524.802 985.222C525.005 983.024 524.021 980.648 523.293 978.449C521.936 974.345 519.996 970.477 514.911 970.49C509.96 970.503 507.765 974.392 506.036 978.202C504.493 981.601 504.491 984.531 509.499 985.345C511.848 985.727 515.778 986.508 515.029 989.772C514.264 993.111 510.443 991.626 508.058 991.378C499.033 990.438 490.688 992.276 485.161 999.559C469.351 1020.39 459.28 1043.19 465.811 1070.11C470.005 1087.4 477.432 1103.19 491.973 1114.42C508.608 1127.27 526.481 1121.89 536.883 1106.61C541.755 1099.45 544.502 1091.5 546.963 1082.5ZM485.232 944.557C481.255 961.385 482.759 978.983 477.938 995.82C482.803 990.822 487.812 986.291 494.194 983.512C495.325 983.02 496.689 981.908 496.977 980.825C498.584 974.789 502.578 969.865 504.664 964.16C507.912 955.278 510.37 946.102 513.044 937.015C520.4 912.02 531.54 888.899 547.13 867.982C556.286 855.698 567.238 845.235 579.716 836.315C571.099 840.384 562.958 845.223 555.475 851.023C535.919 866.183 518.849 883.932 502.701 902.591C492.49 914.39 486.61 928.078 485.232 944.557ZM873.065 1061.89C884.906 1070.63 889.79 1082.69 889.468 1097.87C902.229 1084.16 908.643 1069.18 906.148 1050.98C903.008 1028.07 892.048 1010.05 872.794 997.163C871.097 996.028 869.431 994.538 866.342 994.663C866.419 994.865 866.495 995.066 866.572 995.267C870.852 1006.54 874.927 1017.28 884.712 1024.66C886.565 1026.06 889.981 1027.04 888.351 1030.21C886.763 1033.29 883.893 1031 881.614 1030.64C877.608 1030 873.81 1028.16 869.455 1028.26C868.741 1047.99 863.602 1066.75 860.129 1086.97C864.568 1079.86 866.625 1073.23 868.047 1066.34C868.525 1064.02 868.574 1061 873.065 1061.89ZM608.606 1106.71C592.92 1093.86 586.749 1076.29 583.974 1057.03C583.166 1051.42 580.573 1048.4 577.052 1048.83C571.543 1049.5 572.74 1053.73 572.657 1057.25C572.591 1060.08 572.762 1062.92 572.546 1065.74C572.096 1071.61 569.083 1075.69 563.483 1077.68C561.929 1078.23 560.255 1078.44 558.632 1078.79C556.047 1079.35 555.984 1081.49 555.773 1083.45C555.772 1083.46 555.772 1083.47 555.771 1083.47C555.594 1085.12 555.349 1087.41 557.424 1087.62C566.389 1088.55 571.902 1094.69 577.432 1100.64C580.787 1104.25 583.453 1103.74 586.591 1100.65C587.792 1099.47 589.182 1097.3 591.15 1098.85C592.925 1100.25 591.56 1102.22 590.847 1103.87C590.518 1104.63 590.19 1105.43 589.665 1106.05C587.213 1108.96 588.241 1110.78 591.02 1112.92C601.188 1120.75 612.474 1126.22 624.72 1129.84C641.52 1134.82 656.604 1130.97 671.11 1120.88C648.467 1123.39 627.765 1119.98 608.606 1106.71ZM523.107 1133.38C527.55 1131.05 532.13 1130.15 537.028 1131.88C549.927 1136.45 560.638 1152.38 559.618 1165.85C559.384 1168.94 558.427 1171.98 557.66 1175.74C563.738 1167.66 564.819 1164.25 564.293 1155.39C564.222 1154.19 564.096 1153.04 565.256 1152.26C567.206 1150.96 568.134 1153.17 570.227 1154.48C565.886 1147.01 562.746 1140.21 560.721 1132.98C559.514 1128.67 560.112 1125.08 564.938 1122.68C570.085 1120.12 574.769 1116.64 578.305 1111.44C566.022 1114.32 561.995 1112.18 552.441 1097.94C545.515 1111.76 538.566 1125.31 521.21 1128.64C504.473 1131.84 491.006 1126.13 478.932 1113.69C482.249 1129.25 481.602 1143.32 473.461 1156.46C481.391 1151.94 486.892 1144.67 494.428 1139.66C500.624 1157.92 501.769 1160.02 507.465 1163.79C504.943 1148.92 509.638 1139.47 523.107 1133.38ZM588.269 846.805C595.214 840.608 602.885 835.389 610.579 830.156C592.984 835.143 577.46 843.954 564.952 857.173C550.755 872.176 540.865 890.193 532.093 908.774C527.758 917.958 523.921 927.364 522.179 937.447C521.296 942.558 519.751 947.678 521.169 953.486C524.45 950.693 526.215 947.698 527.201 944.053C537.584 905.676 558.446 873.836 588.269 846.805ZM837.526 1107.43C838.034 1106.54 839.328 1106.09 839.195 1104.24C819.44 1117.11 798.577 1121.32 774.857 1113.11C774.962 1113.24 775.067 1113.37 775.171 1113.5C778.493 1117.68 780.883 1120.69 783.855 1123.18C792.407 1130.35 801.754 1132.27 812.046 1127.28C821.74 1122.58 830.011 1116 837.526 1107.43ZM437.061 1065.71C432.076 1068.44 427.092 1071.16 421.535 1074.19C434.247 1077.15 445.066 1073.74 455.453 1068.01C456.747 1067.29 457.187 1066.12 457.18 1064.67C457.155 1059.12 457.17 1053.56 457.17 1046.71C450.775 1054.35 444.813 1060.49 437.061 1065.71ZM749.889 963.016C749.442 962.374 748.739 961.082 748.155 961.825C744.249 966.793 740.554 971.926 735.947 978.144C742.063 978.144 746.375 978.071 750.684 978.168C753.872 978.239 754.307 976.652 753.629 974.013C752.716 970.459 751.743 966.934 749.889 963.016ZM768.606 1443.15C768.606 1444.13 768.606 1445.11 768.606 1446.09C768.891 1423.7 771.583 1401.54 774.668 1379.38C772.786 1385.4 771.002 1391.45 769.734 1397.6C766.682 1412.43 767.427 1427.4 768.606 1443.15ZM1100.28 1271.72C1101.09 1271.59 1101.92 1271.47 1102.73 1271.31C1106.11 1270.61 1109.74 1269.72 1109 1265.25C1108.3 1261.03 1104.58 1260.35 1100.98 1260.19C1099.89 1260.14 1098.77 1260.62 1097.22 1260.95C1099.38 1264.42 1098.94 1268.09 1100.28 1271.72Z" fill="black"/>
<path d="M768.3 1017.85C780.185 999.402 785.418 979.069 785.435 957.274C785.438 953.111 785.255 948.949 785.16 944.787C785.116 942.835 785.5 941.02 787.6 940.351C789.777 939.659 791.081 941.158 792.054 942.74C793.006 944.288 793.786 945.97 794.426 947.673C796.064 952.034 797.557 956.448 799.152 960.824C811.83 995.613 836.392 1016.16 873.226 1022.38C872.03 1020.6 870.953 1018.96 869.838 1017.34C865.027 1010.38 861.874 1002.75 860.932 994.325C860.28 988.497 863.388 986.28 868.83 988.492C870.709 989.255 872.512 990.203 875.508 991.612C865.16 976.797 858.37 961.94 856.44 945.154C855.719 938.888 855.823 932.531 854.128 926.374C850.288 912.417 842.059 901.346 831.768 891.49C818.149 878.445 803.691 866.409 788.62 855.108C775.1 844.97 761.178 835.594 743.459 834.662C742.64 834.618 741.788 834.473 741.117 832.452C748.651 826.437 756.864 820.253 761.455 810.134C746.97 819.386 731.588 822.802 715.265 821.301L714.616 821.242C698.391 819.749 682.154 818.256 665.972 820.662C638.894 824.69 614.329 835.131 593.645 853.122C560.721 881.76 543.113 919.324 532.644 960.894C530.348 970.009 530.808 978.91 531.732 987.978C531.871 989.344 532.181 990.619 533.131 991.637C545.471 1004.86 552.489 1020.56 554.987 1038.39C555.354 1041.01 556.715 1042.29 559.664 1042.43C572.044 1043.05 584.266 1041.66 596.303 1039.18C624.087 1033.46 648.266 1019.81 671.226 1003.82C683.68 995.143 695.254 985.351 705.741 974.32C706.859 973.144 708.136 970.735 710.143 972.751C711.594 974.209 710.793 976.179 709.6 977.749C708.895 978.678 708.177 979.597 707.48 980.531C702.719 986.918 697.144 992.591 691.402 998.256C691.908 998.507 692.077 998.665 692.18 998.63C692.809 998.417 693.423 998.161 694.041 997.918C716.4 989.131 732.778 973.772 743.986 952.655C746.429 948.051 749.417 947.962 752.511 952.19C753.388 953.389 754.011 954.779 754.705 956.106C761.666 969.423 763.085 983.783 761.43 998.326C760.406 1007.33 758.153 1016.15 754.015 1024.58C751.484 1029.74 747.631 1034.07 744.841 1040.48C754.688 1034.15 761.792 1026.82 768.3 1017.85Z" fill="white"/>
<path d="M749.889 963.016C749.442 962.374 748.739 961.082 748.155 961.825C744.249 966.793 740.554 971.926 735.947 978.144C742.063 978.144 746.375 978.071 750.684 978.168C753.872 978.239 754.307 976.652 753.629 974.013C752.716 970.459 751.743 966.934 749.889 963.016Z" fill="white"/>
<path d="M873.065 1061.89C884.906 1070.63 889.79 1082.69 889.468 1097.87C902.229 1084.16 908.643 1069.18 906.148 1050.98C903.008 1028.07 892.048 1010.05 872.794 997.163C871.097 996.028 869.431 994.538 866.342 994.663L866.572 995.267C870.852 1006.54 874.927 1017.28 884.712 1024.66C886.565 1026.06 889.981 1027.04 888.351 1030.21C886.763 1033.29 883.893 1031 881.614 1030.64C877.608 1030 873.81 1028.16 869.455 1028.26C868.741 1047.99 863.602 1066.75 860.129 1086.97C864.568 1079.86 866.625 1073.23 868.047 1066.34C868.525 1064.02 868.574 1061 873.065 1061.89Z" fill="white"/>
<path d="M837.526 1107.43C838.034 1106.54 839.328 1106.09 839.195 1104.24C819.44 1117.11 798.577 1121.32 774.857 1113.11L775.171 1113.5C778.493 1117.68 780.883 1120.69 783.855 1123.18C792.407 1130.35 801.754 1132.27 812.046 1127.28C821.74 1122.58 830.011 1116 837.526 1107.43Z" fill="#646464"/>
<path d="M608.606 1106.71C592.92 1093.86 586.749 1076.29 583.974 1057.03C583.166 1051.42 580.573 1048.4 577.052 1048.83C571.543 1049.5 572.74 1053.73 572.657 1057.25C572.591 1060.08 572.762 1062.92 572.546 1065.74C572.096 1071.61 569.083 1075.69 563.483 1077.68C561.929 1078.23 560.255 1078.44 558.632 1078.79C556.047 1079.35 555.984 1081.49 555.773 1083.45L555.771 1083.47C555.594 1085.12 555.349 1087.41 557.424 1087.62C566.389 1088.55 571.902 1094.69 577.432 1100.64C580.787 1104.25 583.453 1103.74 586.591 1100.65C587.792 1099.47 589.182 1097.3 591.15 1098.85C592.925 1100.25 591.56 1102.22 590.847 1103.87C590.518 1104.63 590.19 1105.43 589.665 1106.05C587.213 1108.96 588.241 1110.78 591.02 1112.92C601.188 1120.75 612.474 1126.22 624.72 1129.84C641.52 1134.82 656.604 1130.97 671.11 1120.88C648.467 1123.39 627.765 1119.98 608.606 1106.71Z" fill="#646464"/>
<path d="M814.987 1108.68C820.849 1106.24 826.444 1103.28 831.784 1099.87C842.761 1092.87 851.695 1084.07 854.755 1070.9C857.661 1058.39 859.168 1045.76 857.22 1032.83C856.497 1028.02 854.593 1025.61 849.975 1024.17C834.855 1019.46 821.776 1011.23 811.539 999.14C806.797 993.542 801.226 991.334 794.292 990.72C789.86 990.327 787.802 991.7 786.483 996.068C779.699 1018.53 765.223 1034.9 745.368 1046.89C738.825 1050.84 731.426 1052.25 724.267 1054.39C723.127 1054.73 721.856 1054.87 721.18 1053.58C720.423 1052.14 721.129 1051 722.313 1050.15C723.259 1049.48 724.254 1048.86 725.258 1048.27C746.755 1035.66 753.685 1015.12 755.94 992.014C756.214 989.2 755.143 987.685 752.159 987.423L751.806 987.392C740.15 986.366 728.825 985.37 718.608 993.765C704.576 1005.29 688.791 1013.72 670.533 1016.74C668.115 1017.14 665.586 1017.86 663.496 1019.09C642.164 1031.67 620.279 1042.81 595.334 1046.28C592.381 1046.69 591.55 1048.25 591.615 1051.03C591.732 1056.02 591.855 1060.97 592.613 1065.94C596.473 1091.27 615.371 1109.52 640.64 1113.27C660.14 1116.17 678.421 1113.32 695.927 1104.57C707.656 1098.7 720.045 1095.02 733.137 1094.32C747.736 1093.53 760.871 1098.87 773.744 1104.96C786.759 1111.13 800.338 1111.62 814.987 1108.68Z" fill="#646464"/>
<path d="M485.232 944.557C481.255 961.385 482.759 978.983 477.938 995.82C482.803 990.822 487.812 986.291 494.194 983.512C495.325 983.02 496.689 981.908 496.977 980.825C498.584 974.789 502.578 969.865 504.664 964.16C507.912 955.278 510.37 946.102 513.044 937.015C520.4 912.02 531.54 888.899 547.13 867.982C556.286 855.698 567.238 845.235 579.716 836.315C571.099 840.384 562.958 845.223 555.475 851.023C535.919 866.183 518.849 883.932 502.701 902.591C492.49 914.39 486.61 928.078 485.232 944.557Z" fill="white"/>
<path d="M437.061 1065.71L421.535 1074.19C434.247 1077.15 445.066 1073.74 455.453 1068.01C456.747 1067.29 457.187 1066.12 457.18 1064.67C457.155 1059.12 457.17 1053.56 457.17 1046.71C450.775 1054.35 444.813 1060.49 437.061 1065.71Z" fill="white"/>
<path d="M523.107 1133.38C527.55 1131.05 532.13 1130.15 537.028 1131.88C549.927 1136.45 560.638 1152.38 559.618 1165.85C559.384 1168.94 558.427 1171.98 557.66 1175.74C563.738 1167.66 564.819 1164.25 564.293 1155.39C564.222 1154.19 564.096 1153.04 565.256 1152.26C567.206 1150.96 568.134 1153.17 570.227 1154.48C565.886 1147.01 562.746 1140.21 560.721 1132.98C559.514 1128.67 560.112 1125.08 564.938 1122.68C570.085 1120.12 574.769 1116.64 578.305 1111.44C566.022 1114.32 561.995 1112.18 552.441 1097.94C545.515 1111.76 538.566 1125.31 521.21 1128.64C504.473 1131.84 491.006 1126.13 478.932 1113.69C482.249 1129.25 481.602 1143.32 473.461 1156.46C481.391 1151.94 486.892 1144.67 494.428 1139.66C500.624 1157.92 501.769 1160.02 507.465 1163.79C504.943 1148.92 509.638 1139.47 523.107 1133.38Z" fill="white"/>
<path d="M687.076 1280.6C696.52 1273.43 705.887 1266.16 714.569 1257.67C675.64 1235.54 637.192 1214.09 600.61 1188.2C602.603 1197.98 604.479 1207.05 606.296 1216.12C608.221 1225.74 609.601 1235.44 610.595 1245.2C610.772 1246.93 611.188 1249.26 608.779 1249.78C606.193 1250.33 605.948 1247.83 605.528 1246.21C604.45 1242.03 603.724 1237.77 602.686 1233.58C602.11 1231.26 601.969 1228.54 598.396 1228.42C594.763 1228.3 592.983 1230.01 591.963 1233.32C589.954 1239.84 589.861 1246.42 591.241 1252.99C596.163 1276.45 610.719 1290.54 633.771 1296.1C638.589 1297.26 643.417 1298.19 648.543 1297.64C663.004 1296.11 675.019 1289.24 687.076 1280.6Z" fill="white"/>
<path d="M439.315 1322.74C437.578 1326.71 435.546 1330.57 434.156 1334.65C429.111 1349.47 428.317 1364.15 435.546 1378.69C443.504 1394.69 454.371 1408.49 466.734 1421.24C472.14 1426.81 477.701 1432.17 484.768 1436.31C483.809 1428.84 482.803 1421.81 482.022 1414.75C480.689 1402.7 479.256 1390.68 478.723 1378.54C478.088 1364.09 476.341 1349.67 477.52 1335.18C478.443 1323.84 478.326 1312.55 475.697 1301.43C473.678 1292.89 473.795 1284.26 474.126 1275.62C474.242 1272.6 475.242 1269.7 477.191 1267.3C478.779 1265.35 480.918 1264.4 483.413 1265.18C485.881 1265.96 485.717 1268.17 485.678 1270.18C485.636 1272.34 485.547 1274.51 485.38 1276.66C484.47 1288.45 483.394 1300.26 483.839 1312.06C484.389 1326.68 485.36 1341.31 486.868 1355.85C489.128 1377.65 491.581 1399.44 494.59 1421.16C497.481 1442.04 505.19 1459.98 521.55 1474.12C537.603 1488 554.183 1501.05 572.236 1512.19C577.909 1515.69 583.649 1519.11 590.791 1522.04C581.528 1511.91 572.603 1502.96 564.651 1493.11C540.373 1463.03 521.622 1429.8 507.615 1393.84C503.266 1382.67 498.6 1371.62 494.915 1360.21C494.131 1357.77 494.108 1355.6 496.453 1353.99C498.94 1352.28 500.935 1353.71 502.753 1355.2C507.052 1358.72 509.306 1363.47 510.707 1368.74C513.476 1379.16 514.417 1390.1 518.536 1400.12C530.894 1430.17 547.092 1458.08 566.916 1483.82C580.584 1501.57 595.256 1518.24 615.183 1529.56C637.777 1542.41 662.088 1549.97 687.78 1550.67C705.095 1551.13 722.672 1549.36 739.871 1545.93C753.441 1543.23 766.861 1539.95 779.885 1535.23C787.001 1532.65 788.836 1528.62 786.183 1521.55C785.132 1518.76 783.684 1516.12 782.45 1513.39C778.341 1504.31 772.447 1495.98 770.366 1486.05C767.507 1472.41 763.73 1458.97 762.379 1445.01C760.754 1428.2 760.081 1411.49 763.81 1394.85C769.03 1371.57 779.273 1350.27 789.817 1329.09C791.231 1326.25 792.809 1323.49 795.013 1321.18C796.784 1319.32 798.828 1317.56 801.561 1319.03C804.118 1320.4 804.35 1323.02 804 1325.59C803.41 1329.91 801.01 1333.41 798.621 1336.89L798.419 1337.18C796.073 1340.61 793.274 1343.73 791.925 1347.79C788.56 1357.9 785.757 1368.18 783.731 1378.63C777.301 1411.82 775.816 1445.38 776.56 1479.08C776.602 1480.96 777.007 1482.86 777.404 1484.71L777.458 1484.97C780.23 1497.94 787.892 1508.24 795.9 1518.32C801.422 1525.27 807.471 1531.61 815.728 1535.46C819.746 1537.34 823.78 1539.19 828.117 1537.22C835.292 1533.97 842.06 1529.79 847.253 1523.87C852.661 1517.71 854.8 1508.17 844.617 1502.14C837.918 1512.43 832.497 1523.34 829.232 1536.54C826.5 1532.51 826.879 1529.71 827.677 1527.05C828.868 1523.07 830.083 1519.05 831.774 1515.27C838.787 1499.58 847.108 1484.56 856.004 1469.89C871.764 1443.9 888.622 1418.74 912.159 1398.85C914.66 1396.74 917.743 1395.2 919.605 1392.03C919.064 1391.22 918.59 1390.36 917.987 1389.61C903.032 1370.99 889.759 1351.29 878.418 1330.24L878.122 1329.69C868.11 1311.1 858.072 1292.46 844.097 1276.4C838.367 1269.81 831.854 1263.94 823.474 1261.03C801.93 1253.56 780.187 1246.65 758.707 1239C751.396 1236.39 746.665 1235.96 740.798 1243.09C730.785 1255.26 718.492 1265.5 706.475 1275.81C694.967 1285.67 683.33 1295.4 669.288 1301.7C658.29 1306.64 646.929 1308.23 635.159 1305.71C600.865 1298.36 584.499 1269.51 582.027 1239.03C581.219 1229.08 584.033 1219.67 587.434 1210.27C584.135 1209.15 581.068 1208.81 577.913 1208.74C561.118 1208.37 544.46 1210.03 527.777 1211.69L527.618 1211.71C510.338 1213.43 497.113 1220.83 486.913 1235.33C467.815 1262.49 453.068 1291.89 439.315 1322.74Z" fill="#646464"/>
<path d="M1088.87 1281.53C1089.49 1276.92 1091.82 1272.61 1091.85 1267.48C1089.21 1268.22 1088.02 1269.81 1086.64 1271.24C1080.63 1277.45 1078.68 1285.26 1077.67 1293.46C1077.22 1297.11 1077.12 1301.23 1073.63 1303.22C1069.15 1305.77 1066.41 1309.4 1064.29 1313.89C1062.71 1317.24 1060.1 1318.7 1056.62 1316.21C1054.72 1314.85 1052.65 1314.68 1050.45 1314.68L1050.12 1314.68C1046.74 1314.69 1043.36 1314.7 1040.01 1313.96C1037.98 1313.51 1035.66 1313.3 1036.1 1310.54C1036.54 1307.77 1039.29 1307.09 1041.4 1307.12C1050.57 1307.25 1060.57 1311.09 1067.01 1300.53C1067.47 1299.78 1068.8 1299.61 1069.52 1298.95C1070.35 1298.18 1071.46 1297.24 1071.59 1296.26C1072.54 1288.85 1074.8 1281.8 1077.43 1275.22C1075.85 1273.24 1072.93 1274.03 1072.53 1271.33C1073.77 1268.93 1076.07 1269.21 1078.17 1269.25C1080.32 1269.29 1082.09 1268.84 1083.32 1266.9C1085.36 1263.69 1088.24 1261.62 1092.07 1260.88C1089.86 1260.69 1087.72 1260.88 1085.62 1260.65C1070.79 1259.04 1058.1 1263.15 1047.38 1273.79C1040.16 1280.96 1031.32 1284.57 1020.88 1284.86C1006.01 1285.26 996.014 1292.6 991.623 1305.64C985.709 1323.21 978.184 1340.1 969.514 1356.43C961.066 1372.35 951.511 1387.53 937.944 1399.84L937.61 1400.15C919.208 1416.84 900.781 1433.56 888.14 1455.43C887.974 1455.72 887.769 1455.99 887.58 1456.26C886.509 1457.81 885.144 1458.6 883.334 1457.57C881.434 1456.49 882.341 1454.98 883.011 1453.69C884.231 1451.32 885.465 1448.96 886.911 1446.73C894.283 1435.39 901.437 1423.9 909.863 1413.27C889.664 1433.37 873.266 1456.42 858.263 1480.44C854.509 1486.45 852.334 1494.08 857.331 1501.2C867.733 1516.03 880.167 1528.89 894.95 1539.39C897.666 1541.32 900.682 1541.35 903.861 1539.51C920.754 1529.78 935.855 1517.69 948.471 1502.98C967.081 1481.28 979.849 1455.91 990.808 1429.73C998.707 1410.85 1004.04 1390.95 1013.04 1372.49C1019.17 1359.93 1025.1 1347.21 1034.29 1336.44L1034.29 1336.44C1036.37 1334 1038.69 1331.29 1041.98 1331.32C1049.04 1331.39 1055.78 1329.36 1062.77 1328.96C1072.99 1328.38 1083.39 1328.64 1093.01 1323.96C1096.69 1322.17 1100.85 1322.15 1104.74 1323.5C1109.03 1324.99 1112.41 1323.88 1114.69 1320.2C1118.85 1313.51 1125.11 1310.65 1132.54 1309.78C1135.95 1309.38 1138.32 1307.84 1140.11 1304.86C1143.51 1299.21 1147.55 1294.24 1154.33 1292.26C1157.43 1291.35 1158.33 1288.43 1158.98 1285.63C1162.1 1272.19 1164.9 1258.68 1168.64 1245.38C1169.72 1241.55 1171.2 1237.45 1169.26 1233.24C1164.73 1233.38 1161.7 1235.34 1160.63 1239.57C1158.63 1247.46 1155.32 1255.03 1154.59 1263.21C1153.64 1273.72 1148.51 1281.36 1139.17 1286.07C1135.88 1287.73 1134.19 1290.11 1133.45 1293.62C1132.75 1296.91 1131.33 1299.94 1128.53 1302.09L1128.45 1302.15C1127.13 1303.16 1125.59 1304.34 1124.03 1303.25C1122.29 1302.04 1123.36 1300.29 1124.02 1298.76C1125 1296.47 1126.2 1294.22 1126.81 1291.83C1129.34 1281.83 1131.5 1271.75 1134.71 1261.91C1136.1 1257.63 1138.01 1253.19 1136.53 1248.1C1132.83 1248.71 1130.7 1250.99 1129.52 1253.99C1127.32 1259.58 1124.46 1264.76 1121 1269.66C1119.34 1271.99 1118.49 1274.76 1117.95 1277.54C1117.03 1282.27 1116.21 1287.03 1115.61 1291.81C1114.99 1296.8 1112.96 1300.31 1107.59 1301.19C1104.4 1301.71 1101.71 1303.42 1099.02 1305.13C1097.36 1306.18 1095.39 1307.66 1093.71 1305.5C1092.24 1303.58 1093.42 1301.73 1094.87 1300.17C1097.63 1297.19 1100.82 1294.83 1104.75 1293.61C1108.78 1292.37 1107.94 1288.57 1108.87 1285.75C1109.24 1284.64 1109.06 1283.08 1107.56 1282.98C1104.01 1282.73 1101.06 1280.61 1097.53 1279.77C1097.02 1280.66 1096.46 1281.3 1096.24 1282.05C1093.62 1291.14 1090.25 1300.03 1089.36 1309.56C1088.9 1314.43 1087.04 1318.6 1082.69 1321.26C1081.27 1322.14 1079.65 1323.02 1078.12 1321.52C1076.39 1319.82 1077.19 1318.06 1078.58 1316.7C1081.73 1313.65 1082.61 1309.99 1082.18 1305.76C1082.06 1304.48 1082.2 1302.98 1082.77 1301.86C1085.95 1295.7 1086.61 1288.8 1088.87 1281.53Z" fill="white"/>
<path d="M706.965 1223.36C708.607 1223.11 710.255 1222.89 711.89 1222.6C740.639 1217.51 762.752 1201.83 781.571 1180.15C790.782 1169.54 797.921 1158.42 799.851 1144.31C800.34 1140.73 800.239 1138.34 795.782 1137.48C789.234 1136.22 783.767 1132.65 779.428 1127.55C773.312 1120.38 765.917 1114.78 758.078 1109.65C743.141 1099.87 727.647 1099.35 711.54 1106.36C701.542 1110.71 692.843 1117.2 683.679 1122.93C671.62 1130.48 659.154 1137.05 644.589 1138.27C628.628 1139.6 613.345 1137.61 599.634 1128.67C593.816 1124.88 588.313 1120.6 582.472 1116.4C579.728 1119.02 577.072 1121.76 574.203 1124.25C566.695 1130.78 566.561 1131.22 571.162 1140.49C571.827 1141.83 572.582 1143.13 573.301 1144.44C584.131 1164.21 599.846 1179.39 618.635 1191.35C636.752 1202.89 655.135 1214.11 676.207 1219.7C685.985 1222.3 695.754 1225.27 706.965 1223.36Z" fill="white"/>
<path d="M546.963 1082.5C549.705 1072.26 550.095 1061.86 548.995 1051.37C547.131 1033.6 543.46 1016.42 531.525 1002.28C527.294 997.265 524.162 992.159 524.802 985.222C525.005 983.024 524.021 980.648 523.293 978.449C521.936 974.345 519.996 970.477 514.911 970.49C509.96 970.503 507.765 974.392 506.036 978.202C504.493 981.601 504.491 984.531 509.499 985.345C511.848 985.727 515.778 986.508 515.029 989.772C514.264 993.111 510.443 991.626 508.058 991.378C499.033 990.438 490.688 992.276 485.161 999.559C469.351 1020.39 459.28 1043.19 465.811 1070.11C470.005 1087.4 477.432 1103.19 491.973 1114.42C508.608 1127.27 526.481 1121.89 536.883 1106.61C541.755 1099.45 544.502 1091.5 546.963 1082.5Z" fill="white"/>
<path d="M588.269 846.805C595.214 840.608 602.885 835.389 610.579 830.156C592.984 835.143 577.46 843.954 564.952 857.173C550.755 872.176 540.865 890.193 532.093 908.774C527.758 917.958 523.921 927.364 522.179 937.447C521.296 942.558 519.751 947.678 521.169 953.486C524.45 950.693 526.215 947.698 527.201 944.053C537.584 905.676 558.446 873.836 588.269 846.805Z" fill="white"/>
<path d="M1100.28 1271.72C1101.09 1271.59 1101.92 1271.47 1102.73 1271.31C1106.11 1270.61 1109.74 1269.72 1109 1265.25C1108.3 1261.03 1104.58 1260.35 1100.98 1260.19C1099.89 1260.14 1098.77 1260.62 1097.22 1260.95C1099.38 1264.42 1098.94 1268.09 1100.28 1271.72Z" fill="white"/>
<path d="M1076 1092.58C1083.82 1099.29 1089.52 1096.42 1096.12 1090.42C1106.7 1080.8 1118.15 1072.1 1130.41 1064.58C1133.54 1062.66 1136.74 1060.9 1140.35 1060C1142.72 1059.41 1145.13 1059.24 1146.87 1061.19C1148.78 1063.33 1148.19 1065.94 1147.2 1068.28C1144.72 1074.15 1141.1 1079.35 1137.26 1084.4C1135.75 1086.39 1134.91 1088.06 1136.52 1090.63C1140.34 1096.72 1141.43 1103.34 1136.61 1109.28C1131.5 1115.58 1124.13 1116.72 1116.59 1115.24C1113.58 1114.65 1111.84 1114.67 1109.8 1117.21C1107.64 1119.88 1107.84 1121.9 1109.27 1124.81C1133.48 1174.17 1096.12 1230.14 1041.32 1226.52C1031.64 1225.88 1022.08 1223.85 1013.66 1218.72C1009.61 1216.24 1006.89 1216.99 1003.56 1219.89C991.868 1230.06 980.115 1240.2 965.929 1246.91C965.63 1247.05 965.37 1247.28 965.073 1247.43C961.817 1249.05 958.308 1251.63 954.94 1248.61C951.309 1245.34 953.643 1241.55 955.364 1238.1C956.331 1236.17 957.311 1234.22 958.499 1232.42C960.335 1229.64 961.623 1227.33 960.377 1223.4C958.317 1216.91 963.717 1211.3 970.382 1212.45C973.109 1212.93 974.448 1211.9 975.822 1210.12C979.089 1205.92 982.197 1201.57 985.648 1197.52C987.821 1194.97 986.087 1193.19 985.019 1191.25C973.715 1170.76 972.403 1149.42 981.846 1128.26C993.041 1103.18 1012.44 1088.9 1040.59 1086.85C1052.94 1085.95 1064.4 1087.82 1076 1092.58ZM1080.31 1113.75C1082.56 1112.22 1085.72 1112.24 1087.68 1109.7C1085.24 1106.32 1081.63 1104.81 1078.64 1102.52C1074.1 1099.04 1070.08 1100 1065.92 1103.07C1060.36 1107.17 1057.02 1112.93 1053.95 1118.85C1049.04 1128.3 1044.4 1137.9 1039.54 1147.38C1031.05 1163.92 1018.11 1174.67 999.493 1178.15C996.32 1178.74 992.892 1179.06 989.858 1181.44C992.477 1188.84 997.351 1194.66 1002.49 1200.33C1004.79 1202.88 1007.18 1203.18 1010.52 1202.33C1018.33 1200.35 1022.56 1193.67 1028.62 1189.43C1036.73 1183.74 1040.73 1175.52 1043.24 1166.32C1043.9 1163.91 1044.57 1161.51 1045.28 1159.12C1051.08 1139.8 1060.63 1123.33 1080.31 1113.75ZM1040.33 1112.72C1035.59 1123.1 1028.24 1130.91 1017.81 1135.76C1013.59 1137.73 1009.45 1139.87 1005.31 1142C1001.01 1144.22 996.872 1146.72 993.369 1150.1C986.082 1157.13 983.959 1167.64 988.249 1175.54C991.749 1175.49 994.831 1173.65 998.177 1172.83C1014.55 1168.8 1025.78 1158.83 1033.8 1144C1042.67 1127.62 1047.32 1108.46 1064.08 1096.65C1058.78 1094.85 1053.97 1093.85 1048.91 1094.12C1046.95 1094.22 1045.89 1094.79 1045.67 1096.96C1045.13 1102.33 1042.56 1107.08 1040.33 1112.72ZM1066.87 1193.16C1065.68 1202.17 1061.87 1210.12 1056.1 1217.76C1063.4 1217.19 1069.24 1214.91 1075.02 1212.25C1078.23 1210.77 1079.22 1208.89 1078.69 1205.23C1076.55 1190.3 1079.1 1176.76 1090.9 1165.99C1095.95 1161.38 1100.38 1155.99 1102.68 1149.42C1105.29 1141.95 1105.54 1134.41 1101.67 1126.45C1099.91 1128.08 1098.78 1129.03 1097.76 1130.09C1089.16 1138.91 1080.65 1147.83 1071.94 1156.55C1069.64 1158.85 1068.58 1161.2 1068.64 1164.46C1068.82 1173.78 1068.96 1183.11 1066.87 1193.16ZM1055.88 1209.38C1064.18 1195.82 1062.97 1180.68 1063.91 1165.04C1046.76 1179.92 1032.98 1196.77 1014.96 1210.02C1022.53 1214.65 1029.63 1216.26 1036.7 1218.17C1045.4 1220.53 1051.09 1217 1055.88 1209.38ZM1000.54 1133.09C997.935 1135.95 995.006 1138.69 991.373 1139.79C985.436 1141.6 984.823 1145.84 984.843 1152.13C991.984 1141.14 1002.47 1136.72 1012.88 1132.49C1028.01 1126.33 1036.04 1114.86 1039.37 1099.42C1040.37 1094.75 1039.73 1094.1 1034.94 1095.3C1024.02 1098.04 1017.62 1105.92 1012.62 1115.24C1009.31 1121.4 1005.94 1127.49 1000.54 1133.09ZM1095.74 1195.27C1106.39 1181.87 1110.59 1166.62 1108.86 1149.05C1105.72 1157.29 1100.85 1163.73 1095.09 1169.54C1084.99 1179.75 1081.82 1191.98 1084.04 1206.34C1085.02 1205.7 1085.63 1205.42 1086.08 1204.97C1089.17 1201.94 1092.22 1198.87 1095.74 1195.27ZM1078.71 1121.25C1063 1131.21 1053.29 1150.24 1047.52 1172.29C1052.47 1167.58 1057.15 1163.12 1061.83 1158.66C1062.94 1157.61 1063.72 1156.42 1063.98 1154.84C1066.79 1137.47 1077.35 1126.86 1093.46 1121.09C1094.63 1120.67 1096.13 1120.6 1096.48 1119.01C1094.54 1114.58 1091.63 1114.03 1087.68 1116.43C1084.99 1118.06 1082.11 1119.39 1078.71 1121.25ZM993.395 1218.92C996.228 1216.67 999.321 1214.71 1001.34 1212.31C998.114 1208.76 995.063 1205.4 991.622 1201.61C981.864 1213.46 972.147 1224.65 965.262 1238.01C975.35 1233 983.935 1225.95 993.395 1218.92ZM1100.17 1111C1101.46 1112.19 1102.05 1114.2 1104.59 1114.58C1105.63 1113.04 1108.51 1112.01 1107.57 1109.61C1105.37 1104 1104.19 1098.4 1105.69 1092.12C1101.07 1095.87 1096.16 1098.42 1092.81 1103.22C1095.18 1105.71 1097.46 1108.09 1100.17 1111ZM997.148 1118.7C993.592 1123.49 990.496 1128.53 988.419 1134.49C999.929 1128.87 1003.32 1117.76 1008.83 1107.3C1003.94 1110.46 1000.92 1114.46 997.148 1118.7ZM1086.79 1129.47C1078.83 1133.96 1073.12 1140.27 1070.89 1147.58C1077.44 1141.58 1084.94 1134.7 1092.45 1127.82C1092.21 1127.54 1091.97 1127.26 1091.72 1126.97C1090.28 1127.68 1088.83 1128.39 1086.79 1129.47ZM1131.91 1078.49C1133.12 1075.8 1135.47 1073.55 1135.45 1070.06C1130.24 1072.15 1123.23 1077 1119.62 1081C1123.9 1081.28 1128.51 1085.91 1131.91 1078.49Z" fill="black"/>
<path d="M997.148 1118.7C993.592 1123.49 990.496 1128.53 988.419 1134.49C999.929 1128.87 1003.32 1117.76 1008.83 1107.3C1003.94 1110.46 1000.92 1114.46 997.148 1118.7Z" fill="#646464"/>
<path d="M1000.54 1133.09C997.935 1135.95 995.006 1138.69 991.373 1139.79C985.436 1141.6 984.823 1145.84 984.843 1152.13C991.984 1141.14 1002.47 1136.72 1012.88 1132.49C1028.01 1126.33 1036.04 1114.86 1039.37 1099.42C1040.37 1094.75 1039.73 1094.1 1034.94 1095.3C1024.02 1098.04 1017.62 1105.92 1012.62 1115.24C1009.31 1121.4 1005.94 1127.49 1000.54 1133.09Z" fill="#646464"/>
<path d="M1040.33 1112.72C1035.59 1123.1 1028.24 1130.91 1017.81 1135.76C1013.59 1137.73 1009.45 1139.87 1005.31 1142C1001.01 1144.22 996.872 1146.72 993.369 1150.1C986.082 1157.13 983.959 1167.64 988.249 1175.54C991.749 1175.49 994.831 1173.65 998.177 1172.83C1014.55 1168.8 1025.78 1158.83 1033.8 1144C1042.67 1127.62 1047.32 1108.46 1064.08 1096.65C1058.78 1094.85 1053.97 1093.85 1048.91 1094.12C1046.95 1094.22 1045.89 1094.79 1045.67 1096.96C1045.13 1102.33 1042.56 1107.08 1040.33 1112.72Z" fill="#646464"/>
<path d="M1080.31 1113.75C1082.56 1112.22 1085.72 1112.24 1087.68 1109.7C1085.24 1106.32 1081.63 1104.81 1078.64 1102.52C1074.1 1099.04 1070.08 1100 1065.92 1103.07C1060.36 1107.17 1057.02 1112.93 1053.95 1118.85C1049.04 1128.3 1044.4 1137.9 1039.54 1147.38C1031.05 1163.92 1018.11 1174.67 999.493 1178.15C996.32 1178.74 992.892 1179.06 989.858 1181.44C992.477 1188.84 997.351 1194.66 1002.49 1200.33C1004.79 1202.88 1007.18 1203.18 1010.52 1202.33C1018.33 1200.35 1022.56 1193.67 1028.62 1189.43C1036.73 1183.74 1040.73 1175.52 1043.24 1166.32C1043.9 1163.91 1044.57 1161.51 1045.28 1159.12C1051.08 1139.8 1060.63 1123.33 1080.31 1113.75Z" fill="#646464"/>
<path d="M1078.71 1121.25C1063 1131.21 1053.29 1150.24 1047.52 1172.29C1052.47 1167.58 1057.15 1163.12 1061.83 1158.66C1062.94 1157.61 1063.72 1156.42 1063.98 1154.84C1066.79 1137.47 1077.35 1126.86 1093.46 1121.09C1094.63 1120.67 1096.13 1120.6 1096.48 1119.01C1094.54 1114.58 1091.63 1114.03 1087.68 1116.43C1084.99 1118.06 1082.11 1119.39 1078.71 1121.25Z" fill="#646464"/>
<path d="M1086.79 1129.47C1078.83 1133.96 1073.12 1140.27 1070.89 1147.58L1081.67 1137.7L1092.45 1127.82L1091.72 1126.97C1090.28 1127.68 1088.83 1128.39 1086.79 1129.47Z" fill="#646464"/>
<path d="M1066.87 1193.16C1065.68 1202.17 1061.87 1210.12 1056.1 1217.76C1063.4 1217.19 1069.24 1214.91 1075.02 1212.25C1078.23 1210.77 1079.22 1208.89 1078.69 1205.23C1076.55 1190.3 1079.1 1176.76 1090.9 1165.99C1095.95 1161.38 1100.38 1155.99 1102.68 1149.42C1105.29 1141.95 1105.54 1134.41 1101.67 1126.45C1099.91 1128.08 1098.78 1129.03 1097.76 1130.09C1089.16 1138.91 1080.65 1147.83 1071.94 1156.55C1069.64 1158.85 1068.58 1161.2 1068.64 1164.46C1068.82 1173.78 1068.96 1183.11 1066.87 1193.16Z" fill="#646464"/>
<path d="M1095.74 1195.27C1106.39 1181.87 1110.59 1166.62 1108.86 1149.05C1105.72 1157.29 1100.85 1163.73 1095.09 1169.54C1084.99 1179.75 1081.82 1191.98 1084.04 1206.34C1085.02 1205.7 1085.63 1205.42 1086.08 1204.97C1089.17 1201.94 1092.22 1198.87 1095.74 1195.27Z" fill="#646464"/>
<path d="M1055.88 1209.38C1064.18 1195.82 1062.97 1180.68 1063.91 1165.04C1046.76 1179.92 1032.98 1196.77 1014.96 1210.02C1022.53 1214.65 1029.63 1216.26 1036.7 1218.17C1045.4 1220.53 1051.09 1217 1055.88 1209.38Z" fill="#646464"/>
<path d="M886.367 886.669C877.953 879.924 874.558 866.349 878.913 858.078C883.619 849.138 896.187 844.058 906.021 847.298C913.682 849.822 918.356 855.403 919.534 863.174C920.918 872.302 919.7 881.598 911.035 886.546C903.56 890.815 894.873 890.894 886.367 886.669ZM886.928 862.728C885.537 865.12 885.221 867.75 885.258 870.445C885.363 878.16 893.179 884.807 901.255 884.065C908.342 883.414 916.017 874.101 914.925 867.479C913.969 861.687 907.886 855.373 902.055 854.121C896.532 852.936 891.501 855.647 886.928 862.728Z" fill="black"/>
<path d="M886.928 862.728C885.537 865.12 885.221 867.75 885.258 870.445C885.363 878.16 893.179 884.807 901.255 884.065C908.342 883.414 916.017 874.101 914.925 867.479C913.969 861.687 907.886 855.373 902.055 854.121C896.532 852.936 891.501 855.647 886.928 862.728Z" fill="white"/>
<path d="M361.732 1361.32C350.69 1354.02 352.063 1346.91 355.371 1337.83C356.972 1333.43 365.104 1330.31 370.905 1331.13C375.845 1331.83 381.806 1337.89 382.536 1343.44C383.496 1350.75 381.019 1356.89 375.16 1361.4C370.941 1364.65 366.452 1363.7 361.732 1361.32ZM371.394 1339.14C369.049 1337.31 367.626 1339.64 365.722 1340.21C361.112 1341.58 360.346 1344.82 361.205 1348.65C362.105 1352.67 367.484 1355.91 371.319 1354.88C375.465 1353.77 376.949 1350.43 376.91 1346.49C376.877 1343.18 374.559 1341.17 371.394 1339.14Z" fill="black"/>
<path d="M371.394 1339.14C369.049 1337.31 367.626 1339.64 365.722 1340.21C361.112 1341.58 360.346 1344.82 361.205 1348.65C362.105 1352.67 367.484 1355.91 371.319 1354.88C375.465 1353.77 376.949 1350.43 376.91 1346.49C376.877 1343.18 374.559 1341.17 371.394 1339.14Z" fill="white"/>
<path d="M836.276 1589.12C832.757 1584.03 833.414 1577.3 837.622 1572.33C842.307 1566.81 848.413 1565.4 854.654 1568.4C860.66 1571.29 863.812 1577.42 862.515 1584.13C861.492 1589.42 859.356 1594.02 853.654 1595.82C847.942 1597.62 843.206 1595.74 839.019 1591.88C838.162 1591.09 837.365 1590.23 836.276 1589.12ZM844.369 1574.81C840.696 1577.49 838.307 1580.67 840.711 1585.39C842.911 1589.72 848.392 1592.25 852.447 1590.98C856.057 1589.85 858.532 1585.16 858.081 1580.3C857.491 1573.97 851.95 1571.48 844.369 1574.81Z" fill="black"/>
<path d="M844.369 1574.81C840.696 1577.49 838.307 1580.67 840.711 1585.39C842.911 1589.72 848.392 1592.25 852.447 1590.98C856.057 1589.85 858.532 1585.16 858.081 1580.3C857.491 1573.97 851.95 1571.48 844.369 1574.81Z" fill="white"/>
<path d="M1005.16 1241.35C1009.47 1235.43 1014.49 1234.57 1020.43 1238.42C1024.51 1241.06 1025.45 1246.58 1022.62 1251.18C1019.66 1255.98 1013.76 1257.42 1008.66 1254.59C1004.27 1252.15 1002.79 1246.94 1005.16 1241.35ZM1012.13 1250.1C1015.19 1251.71 1017.15 1250.26 1018.51 1247.63C1019.39 1245.95 1018.96 1244.4 1017.29 1243.4C1015.36 1242.23 1013.42 1242.54 1011.88 1244.04C1010.12 1245.75 1008.85 1247.71 1012.13 1250.1Z" fill="black"/>
<path d="M1012.13 1250.1C1015.19 1251.71 1017.15 1250.26 1018.51 1247.63C1019.39 1245.95 1018.96 1244.4 1017.29 1243.4C1015.36 1242.23 1013.42 1242.54 1011.88 1244.04C1010.12 1245.75 1008.85 1247.71 1012.13 1250.1Z" fill="white"/>
<path d="M581.231 1261.6C583.995 1269.51 587.012 1276.87 590.65 1284C600.276 1302.89 616.703 1312.16 636.403 1317C640.243 1317.94 644.178 1316.54 648.255 1317.15C648.093 1320.26 646.012 1321.12 644.119 1321.98C640.203 1323.76 636.099 1323.86 631.899 1323.16C604.316 1318.56 586.876 1302.26 576.961 1276.59C572.915 1266.11 572.806 1255.52 573.166 1244.71C573.186 1244.09 573.26 1243.34 575.014 1242.99C578.029 1248.58 579.026 1255.11 581.231 1261.6Z" fill="black"/>
<path d="M734.083 913.674C734.987 916.922 734.101 919.73 733.254 922.34C729.481 933.968 722.817 943.8 713.767 951.969C711.354 954.146 708.554 957.16 705.038 955.232C701.296 953.18 703.523 949.33 703.836 945.095C701.194 947.151 699.061 948.72 697.032 950.413C694.72 952.341 692.311 954.117 689.506 955.226C687.602 955.978 685.56 956.263 683.863 954.746C682.181 953.243 682.098 951.349 682.801 949.261C686.081 939.511 691.848 931.562 700.173 925.564C703.009 923.52 706.088 923.197 708.792 926.945C710.877 924.057 712.667 921.524 714.513 919.033C717.842 914.54 721.7 910.836 727.446 909.521C731.009 908.705 733.358 909.379 734.083 913.674ZM691.704 941.226C690.007 944.173 687.799 946.902 687.275 950.59C690.126 950.801 691.642 949.163 693.29 947.863C696.288 945.497 699.184 942.998 702.236 940.707C703.66 939.639 705.324 938.403 707.218 939.749C708.871 940.924 708.311 942.597 708.077 944.287C707.78 946.427 706.77 948.641 707.799 950.992C719.208 943.87 731.622 922.329 729.14 914.196C727.126 913.772 725.763 915.165 724.245 916.065C719.305 918.994 716.795 924.005 713.771 928.537C709.607 934.777 707.965 934.952 703.36 929.054C698.539 931.868 695.215 936.14 691.704 941.226Z" fill="black"/>
<path d="M691.704 941.226C690.007 944.173 687.799 946.902 687.275 950.59C690.126 950.801 691.642 949.163 693.29 947.863C696.288 945.497 699.184 942.998 702.236 940.707C703.66 939.639 705.324 938.403 707.218 939.749C708.871 940.924 708.311 942.597 708.077 944.287C707.78 946.427 706.77 948.641 707.799 950.992C719.208 943.87 731.622 922.329 729.14 914.196C727.126 913.772 725.763 915.165 724.245 916.065C719.305 918.994 716.795 924.005 713.771 928.537C709.607 934.777 707.965 934.952 703.36 929.054C698.539 931.868 695.215 936.14 691.704 941.226Z" fill="#646464"/>
<path d="M813.338 916.313C821.818 921.379 827.193 928.623 830.793 937.244C832.083 940.333 833.104 943.839 829.854 946.406C826.801 948.817 823.483 947.825 820.571 945.917C812.013 940.309 806.661 932.32 803.748 922.61C803.008 920.142 803.638 917.91 805.543 916.29C807.893 914.292 810.496 914.87 813.338 916.313ZM818.101 925.135C815.14 923.024 812.835 919.639 808.473 919.919C809.472 929.853 819.132 941.71 826.564 942.367C827.289 937.397 825.696 934.053 818.101 925.135Z" fill="black"/>
<path d="M818.101 925.135C815.14 923.024 812.835 919.639 808.473 919.919C809.472 929.853 819.132 941.71 826.564 942.367C827.289 937.397 825.696 934.053 818.101 925.135Z" fill="#646464"/>
<path d="M627.133 949.284C627.064 945.336 628.792 942.411 630.803 939.821C635.193 934.166 640.511 929.383 646.115 924.949C648.922 922.728 652.316 921.712 655.25 924.134C658.002 926.405 656.896 929.671 655.498 932.39C651.01 941.121 645.083 948.591 635.937 952.824C632.245 954.532 628.729 954.546 627.133 949.284ZM637.459 939.018C635.123 941.845 632.128 944.314 632.005 948.523C639.883 948.162 651.525 935.908 651.856 927.71C645.553 929.284 642.434 934.801 637.459 939.018Z" fill="black"/>
<path d="M637.459 939.018C635.123 941.845 632.128 944.314 632.005 948.523C639.883 948.162 651.525 935.908 651.856 927.71C645.553 929.284 642.434 934.801 637.459 939.018Z" fill="#646464"/>
<path d="M590.502 931.758C591.956 928.968 592.445 925.806 595.911 925.304C599.71 924.754 603.43 924.824 605.336 928.949C606.967 932.481 604.133 937.562 599.432 939.758C596.583 941.088 593.546 941.519 590.938 939.421C588.374 937.359 589.205 934.666 590.502 931.758ZM600.605 933.19C601.399 931.145 600.98 928.976 598.65 929.422C595.259 930.071 594.165 933.017 594.133 936.393C597.201 937.257 598.623 935.31 600.605 933.19Z" fill="black"/>
<path d="M600.605 933.19C601.399 931.145 600.98 928.976 598.65 929.422C595.259 930.071 594.165 933.017 594.133 936.393C597.201 937.257 598.623 935.31 600.605 933.19Z" fill="#646464"/>
<path d="M604.299 1065.52C606.587 1065.8 608.122 1066.68 609.26 1068.23C611.61 1071.43 611.108 1076.82 608.253 1079.09C605.047 1081.63 600.734 1081.05 598.146 1077.72C595.668 1074.54 596.41 1069.99 599.862 1067.18C601.046 1066.22 602.348 1065.55 604.299 1065.52Z" fill="black"/>
<path d="M602.226 1047.64C606.368 1048.42 608.207 1050.9 608.634 1054.54C608.941 1057.16 608.356 1059.39 605.846 1060.89C602.066 1063.16 597.562 1062.29 595.493 1058.76C593.426 1055.23 594.8 1050.65 598.598 1048.69C599.604 1048.17 600.764 1047.94 602.226 1047.64ZM600.461 1057.24C602.646 1058.01 603.63 1056.89 603.666 1054.91C603.685 1053.92 602.82 1052.9 601.722 1053.08C599.509 1053.44 599.309 1054.97 600.461 1057.24Z" fill="black"/>
<path d="M600.461 1057.24C602.646 1058.01 603.63 1056.89 603.666 1054.91C603.685 1053.92 602.82 1052.9 601.722 1053.08C599.509 1053.44 599.309 1054.97 600.461 1057.24Z" fill="white"/>
<path d="M722.411 1183.76C717.769 1184.18 713.371 1186.31 708.758 1182.1C714.998 1179.52 720.945 1178.81 726.855 1178.02C728.149 1177.85 729.699 1177.9 730.103 1179.56C730.565 1181.46 729.155 1182.23 727.659 1182.66C726.082 1183.12 724.45 1183.39 722.411 1183.76Z" fill="black"/>
<path d="M472.346 1065.1C469.205 1050.31 469.069 1036.01 473.468 1021.86C474.301 1019.18 475.6 1016.64 476.676 1014.04C477.332 1012.45 478.064 1010.74 480.19 1011.34C482.34 1011.94 482.616 1013.99 482.584 1015.8C482.463 1022.83 483.696 1029.7 484.617 1036.61C484.861 1038.44 485.199 1040.17 486.252 1042.34C489.046 1037.18 490.858 1031.8 495.072 1027.9C499.122 1024.15 501.42 1024.26 503.838 1029.26C509.388 1040.73 512.466 1052.97 513.54 1065.61C514.438 1076.17 515.625 1086.8 513.713 1097.42C513.384 1099.24 513.561 1101.3 511.165 1101.64C509.078 1101.94 508.358 1100.18 507.688 1098.66C504.211 1090.77 500.772 1082.86 497.077 1074.4C493.422 1079.28 492.081 1084.57 489.973 1089.49C489.212 1091.27 488.91 1093.76 486.638 1094.09C484.159 1094.46 483.639 1091.83 482.545 1090.29C477.252 1082.82 474.678 1074.23 472.346 1065.1ZM508.985 1081.52C508.685 1065.2 507.624 1049.04 499.058 1033.79C494.496 1037.6 492.505 1042.59 489.736 1047C488.621 1048.77 488.078 1051.38 485.297 1051.02C482.775 1050.69 482.086 1048.29 481.34 1046.3C479.305 1040.87 478.212 1035.17 476.928 1028.98C472.666 1048.47 477.861 1065.9 485.061 1083.83C485.103 1083.72 485.145 1083.61 485.187 1083.5C487.138 1078.36 488.816 1073.93 491.777 1070.22C495.146 1065.99 498.6 1066.39 500.88 1071.3C503.277 1076.45 505.476 1081.7 508.958 1087.11C508.958 1085 508.958 1083.67 508.985 1081.52Z" fill="black"/>
<path d="M508.985 1081.52C508.685 1065.2 507.624 1049.04 499.058 1033.79C494.496 1037.6 492.505 1042.59 489.736 1047C488.621 1048.77 488.078 1051.38 485.297 1051.02C482.775 1050.69 482.086 1048.29 481.34 1046.3C479.305 1040.87 478.212 1035.17 476.928 1028.98C472.666 1048.47 477.861 1065.9 485.061 1083.83L485.187 1083.5C487.138 1078.36 488.816 1073.93 491.777 1070.22C495.146 1065.99 498.6 1066.39 500.88 1071.3C503.277 1076.45 505.476 1081.7 508.958 1087.11C508.958 1085 508.958 1083.67 508.985 1081.52Z" fill="#646464"/>
<path d="M670.531 1154.24C668.352 1152.91 666.806 1151.46 665.468 1149.7C663.772 1147.47 660.007 1145.55 663.884 1142.48C666.607 1140.32 669.812 1137.54 672.839 1142.72C674.187 1145.03 676.974 1145.21 679.574 1145.18C704.315 1144.85 729.057 1144.55 753.798 1144.24C755.617 1144.22 757.65 1144.46 757.953 1141.83C758.196 1139.72 758.637 1137.28 761.402 1138.45C763.769 1139.46 765.219 1141.92 764.366 1144.67C763.282 1148.16 761.921 1151.68 759.053 1154.14C751.428 1160.71 743.052 1166.02 733.35 1169.04C731.191 1169.71 729.129 1169.96 727.116 1168.68C725.937 1167.93 724.703 1167.87 723.302 1168.02C714.357 1169.01 705.437 1167.93 696.602 1166.93C686.715 1165.82 678.885 1159.73 670.531 1154.24ZM746.544 1154.14C748.481 1152.34 748.34 1151.06 745.624 1150.41C741.857 1149.51 738.01 1149.28 734.223 1149.88C720.978 1151.97 707.747 1151.67 694.469 1150.26C689.456 1149.73 684.526 1150.59 679.284 1152.22C681.703 1154.38 684.071 1155.2 686.372 1156.09C694.17 1159.1 702.301 1160.29 710.594 1161.32C723.283 1162.89 735.043 1161.36 746.544 1154.14Z" fill="black"/>
<path d="M709.753 1127.22C708.068 1126.84 706.715 1126.67 705.561 1126.09C704.224 1125.43 702.9 1124.38 703.645 1122.59C704.293 1121.04 705.735 1121.15 707.054 1121.63C710.44 1122.87 713.543 1121.69 716.719 1120.71C719.71 1119.79 722.726 1118.68 725.941 1119.47C727.464 1119.84 728.767 1120.7 728.817 1122.45C728.871 1124.36 727.315 1125.16 725.857 1125.16C720.521 1125.16 715.544 1127.68 709.753 1127.22Z" fill="black"/>
<path d="M739.569 1118.59C741.775 1116.8 743.673 1115.2 745.66 1113.72C746.649 1112.98 747.836 1112.91 748.917 1113.64C749.971 1114.34 750.385 1115.35 750.152 1116.63C749.194 1121.91 736.197 1129.09 731.15 1127.09C730.898 1126.99 730.772 1126.58 730.371 1125.99C732.447 1122.59 736.743 1121.72 739.569 1118.59Z" fill="black"/>
<defs>
<filter id="filter0_i_301_4" x="0" y="63" width="1385.08" height="1794.5" filterUnits="userSpaceOnUse" color-interpolation-filters="sRGB">
<feFlood flood-opacity="0" result="BackgroundImageFix"/>
<feBlend mode="normal" in="SourceGraphic" in2="BackgroundImageFix" result="shape"/>
<feColorMatrix in="SourceAlpha" type="matrix" values="0 0 0 0 0 0 0 0 0 0 0 0 0 0 0 0 0 0 127 0" result="hardAlpha"/>
<feOffset dy="4"/>
<feGaussianBlur stdDeviation="2"/>
<feComposite in2="hardAlpha" operator="arithmetic" k2="-1" k3="1"/>
<feColorMatrix type="matrix" values="0 0 0 0 0 0 0 0 0 0 0 0 0 0 0 0 0 0 0.25 0"/>
<feBlend mode="normal" in2="shape" result="effect1_innerShadow_301_4"/>
</filter>
</defs>
</svg>
